<svg width="381" height="449" viewBox="0 0 381 449" fill="none" xmlns="http://www.w3.org/2000/svg">
<rect width="381" height="449" rx="20" fill="#1E1E1E"/>
<path d="M113.942 163.271H110.328L109.73 165H107.819L111.082 155.913H113.201L116.464 165H114.54L113.942 163.271ZM113.448 161.815L112.135 158.019L110.822 161.815H113.448ZM120.037 165.091C119.404 165.091 118.832 164.983 118.321 164.766C117.818 164.549 117.419 164.237 117.125 163.83C116.83 163.423 116.678 162.942 116.67 162.387H118.62C118.646 162.76 118.776 163.054 119.01 163.271C119.252 163.488 119.582 163.596 119.998 163.596C120.422 163.596 120.756 163.496 120.999 163.297C121.241 163.089 121.363 162.82 121.363 162.491C121.363 162.222 121.28 162.001 121.116 161.828C120.951 161.655 120.743 161.52 120.492 161.425C120.249 161.321 119.911 161.208 119.478 161.087C118.888 160.914 118.407 160.745 118.035 160.58C117.671 160.407 117.354 160.151 117.086 159.813C116.826 159.466 116.696 159.007 116.696 158.435C116.696 157.898 116.83 157.43 117.099 157.031C117.367 156.632 117.744 156.329 118.23 156.121C118.715 155.904 119.27 155.796 119.894 155.796C120.83 155.796 121.588 156.026 122.169 156.485C122.758 156.936 123.083 157.568 123.144 158.383H121.142C121.124 158.071 120.99 157.815 120.739 157.616C120.496 157.408 120.171 157.304 119.764 157.304C119.408 157.304 119.122 157.395 118.906 157.577C118.698 157.759 118.594 158.023 118.594 158.37C118.594 158.613 118.672 158.816 118.828 158.981C118.992 159.137 119.192 159.267 119.426 159.371C119.668 159.466 120.006 159.579 120.44 159.709C121.029 159.882 121.51 160.056 121.883 160.229C122.255 160.402 122.576 160.662 122.845 161.009C123.113 161.356 123.248 161.811 123.248 162.374C123.248 162.859 123.122 163.31 122.871 163.726C122.619 164.142 122.251 164.476 121.766 164.727C121.28 164.97 120.704 165.091 120.037 165.091ZM127.179 165.091C126.546 165.091 125.974 164.983 125.463 164.766C124.96 164.549 124.561 164.237 124.267 163.83C123.972 163.423 123.82 162.942 123.812 162.387H125.762C125.788 162.76 125.918 163.054 126.152 163.271C126.394 163.488 126.724 163.596 127.14 163.596C127.564 163.596 127.898 163.496 128.141 163.297C128.383 163.089 128.505 162.82 128.505 162.491C128.505 162.222 128.422 162.001 128.258 161.828C128.093 161.655 127.885 161.52 127.634 161.425C127.391 161.321 127.053 161.208 126.62 161.087C126.03 160.914 125.549 160.745 125.177 160.58C124.813 160.407 124.496 160.151 124.228 159.813C123.968 159.466 123.838 159.007 123.838 158.435C123.838 157.898 123.972 157.43 124.241 157.031C124.509 156.632 124.886 156.329 125.372 156.121C125.857 155.904 126.412 155.796 127.036 155.796C127.972 155.796 128.73 156.026 129.311 156.485C129.9 156.936 130.225 157.568 130.286 158.383H128.284C128.266 158.071 128.132 157.815 127.881 157.616C127.638 157.408 127.313 157.304 126.906 157.304C126.55 157.304 126.264 157.395 126.048 157.577C125.84 157.759 125.736 158.023 125.736 158.37C125.736 158.613 125.814 158.816 125.97 158.981C126.134 159.137 126.334 159.267 126.568 159.371C126.81 159.466 127.148 159.579 127.582 159.709C128.171 159.882 128.652 160.056 129.025 160.229C129.397 160.402 129.718 160.662 129.987 161.009C130.255 161.356 130.39 161.811 130.39 162.374C130.39 162.859 130.264 163.31 130.013 163.726C129.761 164.142 129.393 164.476 128.908 164.727C128.422 164.97 127.846 165.091 127.179 165.091ZM133.008 155.926V165H131.188V155.926H133.008ZM141.787 165H139.967L135.846 158.773V165H134.026V155.913H135.846L139.967 162.153V155.913H141.787V165ZM148.369 163.271H144.755L144.157 165H142.246L145.509 155.913H147.628L150.891 165H148.967L148.369 163.271ZM147.875 161.815L146.562 158.019L145.249 161.815H147.875ZM157.506 155.926V157.395H155.088V165H153.268V157.395H150.85V155.926H157.506ZM159.848 155.926V161.542C159.848 162.157 160.008 162.63 160.329 162.959C160.65 163.28 161.1 163.44 161.681 163.44C162.27 163.44 162.725 163.28 163.046 162.959C163.367 162.63 163.527 162.157 163.527 161.542V155.926H165.36V161.529C165.36 162.3 165.191 162.955 164.853 163.492C164.524 164.021 164.077 164.419 163.514 164.688C162.959 164.957 162.34 165.091 161.655 165.091C160.979 165.091 160.364 164.957 159.809 164.688C159.263 164.419 158.83 164.021 158.509 163.492C158.188 162.955 158.028 162.3 158.028 161.529V155.926H159.848ZM171.018 165L169.016 161.464H168.158V165H166.338V155.926H169.744C170.446 155.926 171.044 156.052 171.538 156.303C172.032 156.546 172.401 156.879 172.643 157.304C172.895 157.72 173.02 158.188 173.02 158.708C173.02 159.306 172.847 159.848 172.5 160.333C172.154 160.81 171.638 161.139 170.953 161.321L173.124 165H171.018ZM168.158 160.099H169.679C170.173 160.099 170.542 159.982 170.784 159.748C171.027 159.505 171.148 159.172 171.148 158.747C171.148 158.331 171.027 158.01 170.784 157.785C170.542 157.551 170.173 157.434 169.679 157.434H168.158V160.099ZM179.45 163.271H175.836L175.238 165H173.327L176.59 155.913H178.709L181.972 165H180.048L179.45 163.271ZM178.956 161.815L177.643 158.019L176.33 161.815H178.956ZM187.863 165.091C187.23 165.091 186.658 164.983 186.147 164.766C185.644 164.549 185.245 164.237 184.951 163.83C184.656 163.423 184.504 162.942 184.496 162.387H186.446C186.472 162.76 186.602 163.054 186.836 163.271C187.078 163.488 187.408 163.596 187.824 163.596C188.248 163.596 188.582 163.496 188.825 163.297C189.067 163.089 189.189 162.82 189.189 162.491C189.189 162.222 189.106 162.001 188.942 161.828C188.777 161.655 188.569 161.52 188.318 161.425C188.075 161.321 187.737 161.208 187.304 161.087C186.714 160.914 186.233 160.745 185.861 160.58C185.497 160.407 185.18 160.151 184.912 159.813C184.652 159.466 184.522 159.007 184.522 158.435C184.522 157.898 184.656 157.43 184.925 157.031C185.193 156.632 185.57 156.329 186.056 156.121C186.541 155.904 187.096 155.796 187.72 155.796C188.656 155.796 189.414 156.026 189.995 156.485C190.584 156.936 190.909 157.568 190.97 158.383H188.968C188.95 158.071 188.816 157.815 188.565 157.616C188.322 157.408 187.997 157.304 187.59 157.304C187.234 157.304 186.948 157.395 186.732 157.577C186.524 157.759 186.42 158.023 186.42 158.37C186.42 158.613 186.498 158.816 186.654 158.981C186.818 159.137 187.018 159.267 187.252 159.371C187.494 159.466 187.832 159.579 188.266 159.709C188.855 159.882 189.336 160.056 189.709 160.229C190.081 160.402 190.402 160.662 190.671 161.009C190.939 161.356 191.074 161.811 191.074 162.374C191.074 162.859 190.948 163.31 190.697 163.726C190.445 164.142 190.077 164.476 189.592 164.727C189.106 164.97 188.53 165.091 187.863 165.091ZM193.692 157.395V159.67H196.747V161.113H193.692V163.518H197.137V165H191.872V155.913H197.137V157.395H193.692ZM207.904 155.926V165H206.084V159.098L203.653 165H202.275L199.831 159.098V165H198.011V155.926H200.078L202.964 162.673L205.85 155.926H207.904ZM216.844 155.926V157.395H213.061V159.722H215.96V161.165H213.061V165H211.241V155.926H216.844ZM219.174 155.926V165H217.354V155.926H219.174ZM223.364 155.926C224.318 155.926 225.154 156.112 225.873 156.485C226.601 156.858 227.16 157.391 227.55 158.084C227.949 158.769 228.148 159.566 228.148 160.476C228.148 161.386 227.949 162.183 227.55 162.868C227.16 163.544 226.601 164.068 225.873 164.441C225.154 164.814 224.318 165 223.364 165H220.192V155.926H223.364ZM223.299 163.453C224.253 163.453 224.989 163.193 225.509 162.673C226.029 162.153 226.289 161.421 226.289 160.476C226.289 159.531 226.029 158.795 225.509 158.266C224.989 157.729 224.253 157.46 223.299 157.46H222.012V163.453H223.299ZM230.551 157.395V159.67H233.606V161.113H230.551V163.518H233.996V165H228.731V155.913H233.996V157.395H230.551ZM236.69 163.557H239.68V165H234.87V155.926H236.69V163.557ZM241.876 155.926V165H240.056V155.926H241.876ZM246.067 155.926C247.02 155.926 247.856 156.112 248.576 156.485C249.304 156.858 249.863 157.391 250.253 158.084C250.651 158.769 250.851 159.566 250.851 160.476C250.851 161.386 250.651 162.183 250.253 162.868C249.863 163.544 249.304 164.068 248.576 164.441C247.856 164.814 247.02 165 246.067 165H242.895V155.926H246.067ZM246.002 163.453C246.955 163.453 247.692 163.193 248.212 162.673C248.732 162.153 248.992 161.421 248.992 160.476C248.992 159.531 248.732 158.795 248.212 158.266C247.692 157.729 246.955 157.46 246.002 157.46H244.715V163.453H246.002ZM256.997 163.271H253.383L252.785 165H250.874L254.137 155.913H256.256L259.519 165H257.595L256.997 163.271ZM256.503 161.815L255.19 158.019L253.877 161.815H256.503ZM263.131 155.926C264.084 155.926 264.92 156.112 265.64 156.485C266.368 156.858 266.927 157.391 267.317 158.084C267.715 158.769 267.915 159.566 267.915 160.476C267.915 161.386 267.715 162.183 267.317 162.868C266.927 163.544 266.368 164.068 265.64 164.441C264.92 164.814 264.084 165 263.131 165H259.959V155.926H263.131ZM263.066 163.453C264.019 163.453 264.756 163.193 265.276 162.673C265.796 162.153 266.056 161.421 266.056 160.476C266.056 159.531 265.796 158.795 265.276 158.266C264.756 157.729 264.019 157.46 263.066 157.46H261.779V163.453H263.066ZM270.317 157.395V159.67H273.372V161.113H270.317V163.518H273.762V165H268.497V155.913H273.762V157.395H270.317Z" fill="white"/>
<path d="M137.229 29.256V32.424H133.845V42H129.849V32.424H126.501V29.256H137.229ZM149.059 31.848V42H145.063V40.452C144.751 40.932 144.331 41.322 143.803 41.622C143.287 41.922 142.669 42.072 141.949 42.072C140.785 42.072 139.873 41.682 139.213 40.902C138.565 40.122 138.241 39.066 138.241 37.734V31.848H142.219V37.23C142.219 37.71 142.345 38.094 142.597 38.382C142.861 38.658 143.209 38.796 143.641 38.796C144.085 38.796 144.433 38.658 144.685 38.382C144.937 38.094 145.063 37.71 145.063 37.23V31.848H149.059ZM150.324 36.924C150.324 35.856 150.504 34.932 150.864 34.152C151.236 33.36 151.74 32.76 152.376 32.352C153.012 31.932 153.726 31.722 154.518 31.722C155.178 31.722 155.742 31.86 156.21 32.136C156.69 32.4 157.056 32.766 157.308 33.234V28.68H161.304V42H157.308V40.614C157.056 41.082 156.69 41.454 156.21 41.73C155.742 41.994 155.178 42.126 154.518 42.126C153.726 42.126 153.012 41.922 152.376 41.514C151.74 41.094 151.236 40.494 150.864 39.714C150.504 38.922 150.324 37.992 150.324 36.924ZM157.326 36.924C157.326 36.384 157.188 35.964 156.912 35.664C156.636 35.364 156.282 35.214 155.85 35.214C155.418 35.214 155.064 35.364 154.788 35.664C154.512 35.964 154.374 36.384 154.374 36.924C154.374 37.464 154.512 37.884 154.788 38.184C155.064 38.484 155.418 38.634 155.85 38.634C156.282 38.634 156.636 38.484 156.912 38.184C157.188 37.884 157.326 37.464 157.326 36.924ZM167.922 42.126C166.902 42.126 165.984 41.916 165.168 41.496C164.352 41.076 163.71 40.476 163.242 39.696C162.786 38.904 162.558 37.98 162.558 36.924C162.558 35.868 162.786 34.95 163.242 34.17C163.71 33.378 164.352 32.772 165.168 32.352C165.984 31.932 166.902 31.722 167.922 31.722C168.942 31.722 169.86 31.932 170.676 32.352C171.492 32.772 172.128 33.378 172.584 34.17C173.052 34.95 173.286 35.868 173.286 36.924C173.286 37.98 173.052 38.904 172.584 39.696C172.128 40.476 171.492 41.076 170.676 41.496C169.86 41.916 168.942 42.126 167.922 42.126ZM167.922 38.67C168.294 38.67 168.606 38.526 168.858 38.238C169.11 37.938 169.236 37.5 169.236 36.924C169.236 36.348 169.11 35.916 168.858 35.628C168.606 35.328 168.294 35.178 167.922 35.178C167.55 35.178 167.238 35.328 166.986 35.628C166.734 35.916 166.608 36.348 166.608 36.924C166.608 37.5 166.728 37.938 166.968 38.238C167.22 38.526 167.538 38.67 167.922 38.67ZM179.616 31.038C178.92 31.038 178.362 30.852 177.942 30.48C177.522 30.108 177.312 29.64 177.312 29.076C177.312 28.5 177.522 28.026 177.942 27.654C178.362 27.27 178.92 27.078 179.616 27.078C180.3 27.078 180.852 27.27 181.272 27.654C181.692 28.026 181.902 28.5 181.902 29.076C181.902 29.64 181.692 30.108 181.272 30.48C180.852 30.852 180.3 31.038 179.616 31.038ZM181.596 31.848V42H177.6V31.848H181.596ZM187.919 42.126C186.959 42.126 186.107 41.97 185.363 41.658C184.631 41.346 184.049 40.914 183.617 40.362C183.185 39.81 182.939 39.186 182.879 38.49H186.713C186.761 38.79 186.887 39.012 187.091 39.156C187.307 39.3 187.577 39.372 187.901 39.372C188.105 39.372 188.267 39.33 188.387 39.246C188.507 39.15 188.567 39.036 188.567 38.904C188.567 38.676 188.441 38.514 188.189 38.418C187.937 38.322 187.511 38.214 186.911 38.094C186.179 37.95 185.573 37.794 185.093 37.626C184.625 37.458 184.211 37.17 183.851 36.762C183.503 36.354 183.329 35.79 183.329 35.07C183.329 34.446 183.491 33.882 183.815 33.378C184.151 32.862 184.643 32.46 185.291 32.172C185.939 31.872 186.725 31.722 187.649 31.722C189.017 31.722 190.085 32.058 190.853 32.73C191.633 33.402 192.101 34.278 192.257 35.358H188.711C188.651 35.082 188.525 34.872 188.333 34.728C188.141 34.572 187.883 34.494 187.559 34.494C187.355 34.494 187.199 34.536 187.091 34.62C186.983 34.692 186.929 34.806 186.929 34.962C186.929 35.166 187.055 35.322 187.307 35.43C187.559 35.526 187.961 35.628 188.513 35.736C189.245 35.88 189.863 36.042 190.367 36.222C190.871 36.402 191.309 36.714 191.681 37.158C192.053 37.59 192.239 38.19 192.239 38.958C192.239 39.558 192.065 40.098 191.717 40.578C191.369 41.058 190.865 41.436 190.205 41.712C189.557 41.988 188.795 42.126 187.919 42.126ZM198.343 42.126C197.383 42.126 196.531 41.97 195.787 41.658C195.055 41.346 194.473 40.914 194.041 40.362C193.609 39.81 193.363 39.186 193.303 38.49H197.137C197.185 38.79 197.311 39.012 197.515 39.156C197.731 39.3 198.001 39.372 198.325 39.372C198.529 39.372 198.691 39.33 198.811 39.246C198.931 39.15 198.991 39.036 198.991 38.904C198.991 38.676 198.865 38.514 198.613 38.418C198.361 38.322 197.935 38.214 197.335 38.094C196.603 37.95 195.997 37.794 195.517 37.626C195.049 37.458 194.635 37.17 194.275 36.762C193.927 36.354 193.753 35.79 193.753 35.07C193.753 34.446 193.915 33.882 194.239 33.378C194.575 32.862 195.067 32.46 195.715 32.172C196.363 31.872 197.149 31.722 198.073 31.722C199.441 31.722 200.509 32.058 201.277 32.73C202.057 33.402 202.525 34.278 202.681 35.358H199.135C199.075 35.082 198.949 34.872 198.757 34.728C198.565 34.572 198.307 34.494 197.983 34.494C197.779 34.494 197.623 34.536 197.515 34.62C197.407 34.692 197.353 34.806 197.353 34.962C197.353 35.166 197.479 35.322 197.731 35.43C197.983 35.526 198.385 35.628 198.937 35.736C199.669 35.88 200.287 36.042 200.791 36.222C201.295 36.402 201.733 36.714 202.105 37.158C202.477 37.59 202.663 38.19 202.663 38.958C202.663 39.558 202.489 40.098 202.141 40.578C201.793 41.058 201.289 41.436 200.629 41.712C199.981 41.988 199.219 42.126 198.343 42.126ZM209.073 42.126C208.053 42.126 207.135 41.916 206.319 41.496C205.503 41.076 204.861 40.476 204.393 39.696C203.937 38.904 203.709 37.98 203.709 36.924C203.709 35.868 203.937 34.95 204.393 34.17C204.861 33.378 205.503 32.772 206.319 32.352C207.135 31.932 208.053 31.722 209.073 31.722C210.093 31.722 211.011 31.932 211.827 32.352C212.643 32.772 213.279 33.378 213.735 34.17C214.203 34.95 214.437 35.868 214.437 36.924C214.437 37.98 214.203 38.904 213.735 39.696C213.279 40.476 212.643 41.076 211.827 41.496C211.011 41.916 210.093 42.126 209.073 42.126ZM209.073 38.67C209.445 38.67 209.757 38.526 210.009 38.238C210.261 37.938 210.387 37.5 210.387 36.924C210.387 36.348 210.261 35.916 210.009 35.628C209.757 35.328 209.445 35.178 209.073 35.178C208.701 35.178 208.389 35.328 208.137 35.628C207.885 35.916 207.759 36.348 207.759 36.924C207.759 37.5 207.879 37.938 208.119 38.238C208.371 38.526 208.689 38.67 209.073 38.67ZM222.747 33.234C222.999 32.766 223.359 32.4 223.827 32.136C224.307 31.86 224.877 31.722 225.537 31.722C226.329 31.722 227.043 31.932 227.679 32.352C228.315 32.76 228.813 33.36 229.173 34.152C229.545 34.932 229.731 35.856 229.731 36.924C229.731 37.992 229.545 38.922 229.173 39.714C228.813 40.494 228.315 41.094 227.679 41.514C227.043 41.922 226.329 42.126 225.537 42.126C224.877 42.126 224.307 41.994 223.827 41.73C223.359 41.454 222.999 41.082 222.747 40.614V46.86H218.751V31.848H222.747V33.234ZM225.681 36.924C225.681 36.384 225.543 35.964 225.267 35.664C224.991 35.364 224.637 35.214 224.205 35.214C223.773 35.214 223.419 35.364 223.143 35.664C222.867 35.964 222.729 36.384 222.729 36.924C222.729 37.464 222.867 37.884 223.143 38.184C223.419 38.484 223.773 38.634 224.205 38.634C224.637 38.634 224.991 38.484 225.267 38.184C225.543 37.884 225.681 37.464 225.681 36.924ZM235.809 42.126C234.789 42.126 233.871 41.916 233.055 41.496C232.239 41.076 231.597 40.476 231.129 39.696C230.673 38.904 230.445 37.98 230.445 36.924C230.445 35.868 230.673 34.95 231.129 34.17C231.597 33.378 232.239 32.772 233.055 32.352C233.871 31.932 234.789 31.722 235.809 31.722C236.829 31.722 237.747 31.932 238.563 32.352C239.379 32.772 240.015 33.378 240.471 34.17C240.939 34.95 241.173 35.868 241.173 36.924C241.173 37.98 240.939 38.904 240.471 39.696C240.015 40.476 239.379 41.076 238.563 41.496C237.747 41.916 236.829 42.126 235.809 42.126ZM235.809 38.67C236.181 38.67 236.493 38.526 236.745 38.238C236.997 37.938 237.123 37.5 237.123 36.924C237.123 36.348 236.997 35.916 236.745 35.628C236.493 35.328 236.181 35.178 235.809 35.178C235.437 35.178 235.125 35.328 234.873 35.628C234.621 35.916 234.495 36.348 234.495 36.924C234.495 37.5 234.615 37.938 234.855 38.238C235.107 38.526 235.425 38.67 235.809 38.67ZM246.424 33.72C246.832 33.132 247.33 32.664 247.918 32.316C248.506 31.956 249.118 31.776 249.754 31.776V36.042H248.62C247.864 36.042 247.306 36.174 246.946 36.438C246.598 36.702 246.424 37.17 246.424 37.842V42H242.428V31.848H246.424V33.72ZM252.811 42.144C252.115 42.144 251.557 41.958 251.137 41.586C250.717 41.214 250.507 40.746 250.507 40.182C250.507 39.606 250.717 39.132 251.137 38.76C251.557 38.376 252.115 38.184 252.811 38.184C253.495 38.184 254.047 38.376 254.467 38.76C254.887 39.132 255.097 39.606 255.097 40.182C255.097 40.746 254.887 41.214 254.467 41.586C254.047 41.958 253.495 42.144 252.811 42.144ZM252.811 35.016C252.115 35.016 251.557 34.83 251.137 34.458C250.717 34.086 250.507 33.618 250.507 33.054C250.507 32.478 250.717 32.004 251.137 31.632C251.557 31.248 252.115 31.056 252.811 31.056C253.495 31.056 254.047 31.248 254.467 31.632C254.887 32.004 255.097 32.478 255.097 33.054C255.097 33.618 254.887 34.086 254.467 34.458C254.047 34.83 253.495 35.016 252.811 35.016Z" fill="white"/>
<path d="M121.864 89.25V85.298H129.768V113H125.398V89.25H121.864ZM135.149 89.25V85.298H143.053V113H138.683V89.25H135.149ZM154.401 105.476C154.654 106.743 155.199 107.705 156.035 108.364C156.871 109.023 157.998 109.352 159.417 109.352C161.215 109.352 162.533 108.643 163.369 107.224C164.205 105.805 164.623 103.386 164.623 99.966C164.015 100.827 163.153 101.499 162.039 101.98C160.949 102.436 159.759 102.664 158.467 102.664C156.82 102.664 155.325 102.335 153.983 101.676C152.64 100.992 151.576 99.9913 150.791 98.674C150.031 97.3313 149.651 95.71 149.651 93.81C149.651 91.0233 150.461 88.8067 152.083 87.16C153.729 85.488 155.984 84.652 158.847 84.652C162.292 84.652 164.737 85.8047 166.181 88.11C167.65 90.39 168.385 93.8987 168.385 98.636C168.385 101.904 168.106 104.577 167.549 106.654C167.017 108.731 166.079 110.302 164.737 111.366C163.394 112.43 161.532 112.962 159.151 112.962C156.44 112.962 154.35 112.253 152.881 110.834C151.411 109.415 150.588 107.629 150.411 105.476H154.401ZM159.227 99.016C160.747 99.016 161.937 98.5473 162.799 97.61C163.685 96.6473 164.129 95.3807 164.129 93.81C164.129 92.062 163.66 90.7067 162.723 89.744C161.811 88.756 160.557 88.262 158.961 88.262C157.365 88.262 156.098 88.7687 155.161 89.782C154.249 90.77 153.793 92.0747 153.793 93.696C153.793 95.2413 154.236 96.5207 155.123 97.534C156.035 98.522 157.403 99.016 159.227 99.016ZM178.446 107.794L173.848 118.282H171.036L173.734 107.794H178.446ZM187.057 105.476C187.31 106.743 187.855 107.705 188.691 108.364C189.527 109.023 190.654 109.352 192.073 109.352C193.872 109.352 195.189 108.643 196.025 107.224C196.861 105.805 197.279 103.386 197.279 99.966C196.671 100.827 195.81 101.499 194.695 101.98C193.606 102.436 192.415 102.664 191.123 102.664C189.476 102.664 187.982 102.335 186.639 101.676C185.296 100.992 184.232 99.9913 183.447 98.674C182.687 97.3313 182.307 95.71 182.307 93.81C182.307 91.0233 183.118 88.8067 184.739 87.16C186.386 85.488 188.64 84.652 191.503 84.652C194.948 84.652 197.393 85.8047 198.837 88.11C200.306 90.39 201.041 93.8987 201.041 98.636C201.041 101.904 200.762 104.577 200.205 106.654C199.673 108.731 198.736 110.302 197.393 111.366C196.05 112.43 194.188 112.962 191.807 112.962C189.096 112.962 187.006 112.253 185.537 110.834C184.068 109.415 183.244 107.629 183.067 105.476H187.057ZM191.883 99.016C193.403 99.016 194.594 98.5473 195.455 97.61C196.342 96.6473 196.785 95.3807 196.785 93.81C196.785 92.062 196.316 90.7067 195.379 89.744C194.467 88.756 193.213 88.262 191.617 88.262C190.021 88.262 188.754 88.7687 187.817 89.782C186.905 90.77 186.449 92.0747 186.449 93.696C186.449 95.2413 186.892 96.5207 187.779 97.534C188.691 98.522 190.059 99.016 191.883 99.016ZM205.782 98.788C205.782 94.4053 206.517 90.9853 207.986 88.528C209.481 86.0453 212.039 84.804 215.662 84.804C219.285 84.804 221.831 86.0453 223.3 88.528C224.795 90.9853 225.542 94.4053 225.542 98.788C225.542 103.221 224.795 106.692 223.3 109.2C221.831 111.683 219.285 112.924 215.662 112.924C212.039 112.924 209.481 111.683 207.986 109.2C206.517 106.692 205.782 103.221 205.782 98.788ZM221.286 98.788C221.286 96.736 221.147 95.0007 220.868 93.582C220.615 92.1633 220.083 91.0107 219.272 90.124C218.461 89.212 217.258 88.756 215.662 88.756C214.066 88.756 212.863 89.212 212.052 90.124C211.241 91.0107 210.697 92.1633 210.418 93.582C210.165 95.0007 210.038 96.736 210.038 98.788C210.038 100.916 210.165 102.702 210.418 104.146C210.671 105.59 211.203 106.755 212.014 107.642C212.85 108.529 214.066 108.972 215.662 108.972C217.258 108.972 218.461 108.529 219.272 107.642C220.108 106.755 220.653 105.59 220.906 104.146C221.159 102.702 221.286 100.916 221.286 98.788Z" fill="#FFCD54"/>
<path opacity="0.5" d="M237.149 87.218L231.395 110.57H229.505L235.238 87.218H237.149ZM259.434 95.282C260.33 95.282 261.128 95.471 261.828 95.849C262.528 96.213 263.081 96.766 263.487 97.508C263.893 98.25 264.096 99.153 264.096 100.217V107H262.206V100.49C262.206 99.342 261.919 98.467 261.345 97.865C260.785 97.249 260.022 96.941 259.056 96.941C258.062 96.941 257.271 97.263 256.683 97.907C256.095 98.537 255.801 99.454 255.801 100.658V107H253.911V100.49C253.911 99.342 253.624 98.467 253.05 97.865C252.49 97.249 251.727 96.941 250.761 96.941C249.767 96.941 248.976 97.263 248.388 97.907C247.8 98.537 247.506 99.454 247.506 100.658V107H245.595V95.492H247.506V97.151C247.884 96.549 248.388 96.087 249.018 95.765C249.662 95.443 250.369 95.282 251.139 95.282C252.105 95.282 252.959 95.499 253.701 95.933C254.443 96.367 254.996 97.004 255.36 97.844C255.682 97.032 256.214 96.402 256.956 95.954C257.698 95.506 258.524 95.282 259.434 95.282ZM277.731 100.805C277.731 101.169 277.71 101.554 277.668 101.96H268.47C268.54 103.094 268.925 103.983 269.625 104.627C270.339 105.257 271.2 105.572 272.208 105.572C273.034 105.572 273.72 105.383 274.266 105.005C274.826 104.613 275.218 104.095 275.442 103.451H277.5C277.192 104.557 276.576 105.46 275.652 106.16C274.728 106.846 273.58 107.189 272.208 107.189C271.116 107.189 270.136 106.944 269.268 106.454C268.414 105.964 267.742 105.271 267.252 104.375C266.762 103.465 266.517 102.415 266.517 101.225C266.517 100.035 266.755 98.992 267.231 98.096C267.707 97.2 268.372 96.514 269.226 96.038C270.094 95.548 271.088 95.303 272.208 95.303C273.3 95.303 274.266 95.541 275.106 96.017C275.946 96.493 276.59 97.151 277.038 97.991C277.5 98.817 277.731 99.755 277.731 100.805ZM275.757 100.406C275.757 99.678 275.596 99.055 275.274 98.537C274.952 98.005 274.511 97.606 273.951 97.34C273.405 97.06 272.796 96.92 272.124 96.92C271.158 96.92 270.332 97.228 269.646 97.844C268.974 98.46 268.589 99.314 268.491 100.406H275.757ZM272.145 92.678L269.226 94.463V92.951L272.145 91.208L275.043 92.951V94.463L272.145 92.678ZM284.327 107.189C283.445 107.189 282.654 107.042 281.954 106.748C281.254 106.44 280.701 106.02 280.295 105.488C279.889 104.942 279.665 104.319 279.623 103.619H281.597C281.653 104.193 281.919 104.662 282.395 105.026C282.885 105.39 283.522 105.572 284.306 105.572C285.034 105.572 285.608 105.411 286.028 105.089C286.448 104.767 286.658 104.361 286.658 103.871C286.658 103.367 286.434 102.996 285.986 102.758C285.538 102.506 284.845 102.261 283.907 102.023C283.053 101.799 282.353 101.575 281.807 101.351C281.275 101.113 280.813 100.77 280.421 100.322C280.043 99.86 279.854 99.258 279.854 98.516C279.854 97.928 280.029 97.389 280.379 96.899C280.729 96.409 281.226 96.024 281.87 95.744C282.514 95.45 283.249 95.303 284.075 95.303C285.349 95.303 286.378 95.625 287.162 96.269C287.946 96.913 288.366 97.795 288.422 98.915H286.511C286.469 98.313 286.224 97.83 285.776 97.466C285.342 97.102 284.754 96.92 284.012 96.92C283.326 96.92 282.78 97.067 282.374 97.361C281.968 97.655 281.765 98.04 281.765 98.516C281.765 98.894 281.884 99.209 282.122 99.461C282.374 99.699 282.682 99.895 283.046 100.049C283.424 100.189 283.942 100.35 284.6 100.532C285.426 100.756 286.098 100.98 286.616 101.204C287.134 101.414 287.575 101.736 287.939 102.17C288.317 102.604 288.513 103.171 288.527 103.871C288.527 104.501 288.352 105.068 288.002 105.572C287.652 106.076 287.155 106.475 286.511 106.769C285.881 107.049 285.153 107.189 284.327 107.189Z" fill="#FFCD54"/>
<path opacity="0.5" d="M101.562 107L97.7436 100.445H95.2136V107H93.1206V90.969H98.2956C99.5069 90.969 100.527 91.176 101.355 91.59C102.198 92.004 102.827 92.5637 103.241 93.269C103.655 93.9743 103.862 94.7793 103.862 95.684C103.862 96.788 103.54 97.7617 102.896 98.605C102.267 99.4483 101.316 100.008 100.044 100.284L104.069 107H101.562ZM95.2136 98.766H98.2956C99.4303 98.766 100.281 98.49 100.849 97.938C101.416 97.3707 101.7 96.6193 101.7 95.684C101.7 94.7333 101.416 93.9973 100.849 93.476C100.297 92.9547 99.4456 92.694 98.2956 92.694H95.2136V98.766ZM117.464 102.607C117.464 103.343 117.28 104.048 116.912 104.723C116.544 105.382 115.999 105.934 115.279 106.379C114.573 106.824 113.722 107.077 112.726 107.138V109.001H111.484V107.138C110.088 107.015 108.954 106.571 108.08 105.804C107.206 105.022 106.761 104.033 106.746 102.837H108.977C109.038 103.481 109.276 104.041 109.69 104.516C110.119 104.991 110.717 105.29 111.484 105.413V99.663C110.456 99.4023 109.628 99.134 109 98.858C108.371 98.582 107.834 98.1527 107.39 97.57C106.945 96.9873 106.723 96.2053 106.723 95.224C106.723 93.982 107.152 92.9547 108.011 92.142C108.885 91.3293 110.042 90.877 111.484 90.785V88.876H112.726V90.785C114.029 90.8923 115.079 91.314 115.877 92.05C116.674 92.7707 117.134 93.7137 117.257 94.879H115.026C114.949 94.3423 114.711 93.8593 114.313 93.43C113.914 92.9853 113.385 92.694 112.726 92.556V98.168C113.738 98.4287 114.558 98.697 115.187 98.973C115.831 99.2337 116.367 99.6553 116.797 100.238C117.241 100.821 117.464 101.61 117.464 102.607ZM108.862 95.109C108.862 95.8603 109.084 96.4353 109.529 96.834C109.973 97.2327 110.625 97.5623 111.484 97.823V92.51C110.686 92.5867 110.05 92.8473 109.575 93.292C109.099 93.7213 108.862 94.327 108.862 95.109ZM112.726 105.436C113.554 105.344 114.198 105.045 114.658 104.539C115.133 104.033 115.371 103.427 115.371 102.722C115.371 101.971 115.141 101.396 114.681 100.997C114.221 100.583 113.569 100.253 112.726 100.008V105.436Z" fill="#FFCD54"/>
<path d="M67 194H315" stroke="#3F3F3F"/>
<rect x="86" y="380" width="210" height="41" rx="15" fill="#00AE1C"/>
<path d="M103.609 406.995L102.725 405.539C102.526 405.574 102.296 405.591 102.036 405.591C101.17 405.591 100.372 405.387 99.6444 404.98C98.925 404.573 98.353 404.009 97.9284 403.29C97.5037 402.571 97.2914 401.76 97.2914 400.859C97.2914 399.958 97.5037 399.147 97.9284 398.428C98.353 397.709 98.925 397.15 99.6444 396.751C100.372 396.344 101.17 396.14 102.036 396.14C102.903 396.14 103.696 396.344 104.415 396.751C105.135 397.15 105.702 397.709 106.118 398.428C106.543 399.147 106.755 399.958 106.755 400.859C106.755 401.596 106.612 402.276 106.326 402.9C106.04 403.515 105.646 404.04 105.143 404.473L107.015 406.995H103.609ZM100.229 400.859C100.229 401.483 100.385 401.981 100.697 402.354C101.009 402.718 101.456 402.9 102.036 402.9C102.608 402.9 103.05 402.718 103.362 402.354C103.674 401.981 103.83 401.483 103.83 400.859C103.83 400.226 103.674 399.728 103.362 399.364C103.05 398.991 102.608 398.805 102.036 398.805C101.456 398.805 101.009 398.991 100.697 399.364C100.385 399.728 100.229 400.226 100.229 400.859ZM110.617 396.296V401.483C110.617 401.908 110.708 402.246 110.89 402.497C111.081 402.74 111.384 402.861 111.8 402.861C112.216 402.861 112.524 402.74 112.723 402.497C112.923 402.246 113.022 401.908 113.022 401.483V396.296H115.895V401.483C115.895 402.358 115.713 403.108 115.349 403.732C114.985 404.347 114.487 404.811 113.854 405.123C113.222 405.435 112.515 405.591 111.735 405.591C110.955 405.591 110.262 405.435 109.655 405.123C109.057 404.811 108.589 404.347 108.251 403.732C107.913 403.117 107.744 402.367 107.744 401.483V396.296H110.617ZM120.026 398.597V399.728H122.886V401.899H120.026V403.199H123.276V405.5H117.14V396.296H123.276V398.597H120.026ZM128.992 405.5L127.263 402.198H127.25V405.5H124.364V396.296H128.654C129.399 396.296 130.036 396.43 130.565 396.699C131.094 396.959 131.488 397.319 131.748 397.778C132.017 398.229 132.151 398.74 132.151 399.312C132.151 399.927 131.978 400.473 131.631 400.95C131.293 401.427 130.803 401.769 130.162 401.977L132.164 405.5H128.992ZM127.25 400.274H128.394C128.671 400.274 128.879 400.213 129.018 400.092C129.157 399.962 129.226 399.763 129.226 399.494C129.226 399.251 129.152 399.061 129.005 398.922C128.866 398.783 128.663 398.714 128.394 398.714H127.25V400.274ZM137.558 405.591C136.691 405.591 135.894 405.387 135.166 404.98C134.447 404.573 133.875 404.009 133.45 403.29C133.025 402.571 132.813 401.76 132.813 400.859C132.813 399.958 133.025 399.147 133.45 398.428C133.875 397.709 134.447 397.15 135.166 396.751C135.894 396.344 136.691 396.14 137.558 396.14C138.425 396.14 139.218 396.344 139.937 396.751C140.656 397.15 141.224 397.709 141.64 398.428C142.065 399.147 142.277 399.958 142.277 400.859C142.277 401.76 142.065 402.571 141.64 403.29C141.224 404.009 140.652 404.573 139.924 404.98C139.205 405.387 138.416 405.591 137.558 405.591ZM137.558 402.9C138.13 402.9 138.572 402.718 138.884 402.354C139.196 401.981 139.352 401.483 139.352 400.859C139.352 400.226 139.196 399.728 138.884 399.364C138.572 398.991 138.13 398.805 137.558 398.805C136.977 398.805 136.531 398.991 136.219 399.364C135.907 399.728 135.751 400.226 135.751 400.859C135.751 401.483 135.907 401.981 136.219 402.354C136.531 402.718 136.977 402.9 137.558 402.9ZM145.267 400.885C145.267 399.975 145.449 399.165 145.813 398.454C146.186 397.743 146.714 397.193 147.399 396.803C148.084 396.404 148.89 396.205 149.817 396.205C150.614 396.205 151.325 396.357 151.949 396.66C152.582 396.955 153.093 397.375 153.483 397.921C153.882 398.467 154.146 399.104 154.276 399.832H151.234C151.095 399.529 150.896 399.295 150.636 399.13C150.385 398.957 150.094 398.87 149.765 398.87C149.28 398.87 148.894 399.052 148.608 399.416C148.331 399.78 148.192 400.27 148.192 400.885C148.192 401.5 148.331 401.99 148.608 402.354C148.894 402.718 149.28 402.9 149.765 402.9C150.094 402.9 150.385 402.818 150.636 402.653C150.896 402.48 151.095 402.241 151.234 401.938H154.276C154.146 402.666 153.882 403.303 153.483 403.849C153.093 404.395 152.582 404.82 151.949 405.123C151.325 405.418 150.614 405.565 149.817 405.565C148.89 405.565 148.084 405.37 147.399 404.98C146.714 404.581 146.186 404.027 145.813 403.316C145.449 402.605 145.267 401.795 145.267 400.885ZM159.8 405.591C158.933 405.591 158.136 405.387 157.408 404.98C156.689 404.573 156.117 404.009 155.692 403.29C155.267 402.571 155.055 401.76 155.055 400.859C155.055 399.958 155.267 399.147 155.692 398.428C156.117 397.709 156.689 397.15 157.408 396.751C158.136 396.344 158.933 396.14 159.8 396.14C160.667 396.14 161.46 396.344 162.179 396.751C162.898 397.15 163.466 397.709 163.882 398.428C164.307 399.147 164.519 399.958 164.519 400.859C164.519 401.76 164.307 402.571 163.882 403.29C163.466 404.009 162.894 404.573 162.166 404.98C161.447 405.387 160.658 405.591 159.8 405.591ZM159.8 402.9C160.372 402.9 160.814 402.718 161.126 402.354C161.438 401.981 161.594 401.483 161.594 400.859C161.594 400.226 161.438 399.728 161.126 399.364C160.814 398.991 160.372 398.805 159.8 398.805C159.219 398.805 158.773 398.991 158.461 399.364C158.149 399.728 157.993 400.226 157.993 400.859C157.993 401.483 158.149 401.981 158.461 402.354C158.773 402.718 159.219 402.9 159.8 402.9ZM176.623 396.296V405.5H173.75V400.911L172.333 405.5H169.863L168.446 400.911V405.5H165.56V396.296H169.096L171.124 401.821L173.1 396.296H176.623ZM180.811 398.597V399.728H183.671V401.899H180.811V403.199H184.061V405.5H177.925V396.296H184.061V398.597H180.811ZM189.387 402.9C189.716 402.9 190.007 402.818 190.258 402.653C190.518 402.48 190.717 402.241 190.856 401.938H193.898C193.733 402.9 193.335 403.697 192.702 404.33C192.069 404.963 191.268 405.353 190.297 405.5H190.362V405.942C190.605 405.942 190.856 405.99 191.116 406.085C191.376 406.189 191.597 406.358 191.779 406.592C191.961 406.835 192.052 407.147 192.052 407.528C192.052 408.091 191.857 408.494 191.467 408.737C191.077 408.988 190.622 409.114 190.102 409.114H187.853V407.645H189.803C189.907 407.645 189.989 407.623 190.05 407.58C190.111 407.545 190.141 407.498 190.141 407.437C190.141 407.307 190.028 407.242 189.803 407.242H188.698V405.513C187.918 405.409 187.238 405.149 186.657 404.733C186.085 404.317 185.647 403.78 185.344 403.121C185.041 402.462 184.889 401.717 184.889 400.885C184.889 399.975 185.071 399.165 185.435 398.454C185.808 397.743 186.336 397.193 187.021 396.803C187.706 396.404 188.512 396.205 189.439 396.205C190.236 396.205 190.947 396.357 191.571 396.66C192.204 396.955 192.715 397.375 193.105 397.921C193.504 398.467 193.768 399.104 193.898 399.832H190.856C190.717 399.529 190.518 399.295 190.258 399.13C190.007 398.957 189.716 398.87 189.387 398.87C188.902 398.87 188.516 399.052 188.23 399.416C187.953 399.78 187.814 400.27 187.814 400.885C187.814 401.5 187.953 401.99 188.23 402.354C188.516 402.718 188.902 402.9 189.387 402.9ZM200.839 404.109H197.771L197.316 405.5H194.287L197.654 396.296H200.982L204.336 405.5H201.294L200.839 404.109ZM200.137 401.938L199.305 399.377L198.473 401.938H200.137ZM209.62 405.5L207.891 402.198H207.878V405.5H204.992V396.296H209.282C210.027 396.296 210.664 396.43 211.193 396.699C211.721 396.959 212.116 397.319 212.376 397.778C212.644 398.229 212.779 398.74 212.779 399.312C212.779 399.927 212.605 400.473 212.259 400.95C211.921 401.427 211.431 401.769 210.79 401.977L212.792 405.5H209.62ZM207.878 400.274H209.022C209.299 400.274 209.507 400.213 209.646 400.092C209.784 399.962 209.854 399.763 209.854 399.494C209.854 399.251 209.78 399.061 209.633 398.922C209.494 398.783 209.29 398.714 209.022 398.714H207.878V400.274ZM221.812 404.109H218.744L218.289 405.5H215.26L218.627 396.296H221.955L225.309 405.5H222.267L221.812 404.109ZM221.11 401.938L220.278 399.377L219.446 401.938H221.11ZM231.606 399.442C231.494 399.26 231.333 399.121 231.125 399.026C230.917 398.922 230.666 398.87 230.371 398.87C229.817 398.87 229.388 399.052 229.084 399.416C228.781 399.771 228.629 400.261 228.629 400.885C228.629 401.604 228.798 402.142 229.136 402.497C229.474 402.852 229.994 403.03 230.696 403.03C231.364 403.03 231.901 402.761 232.308 402.224H230.007V400.183H234.7V403.069C234.302 403.754 233.751 404.343 233.049 404.837C232.347 405.322 231.459 405.565 230.384 405.565C229.431 405.565 228.599 405.37 227.888 404.98C227.186 404.581 226.645 404.027 226.263 403.316C225.891 402.605 225.704 401.795 225.704 400.885C225.704 399.975 225.891 399.165 226.263 398.454C226.645 397.743 227.186 397.193 227.888 396.803C228.59 396.404 229.414 396.205 230.358 396.205C231.563 396.205 232.542 396.495 233.296 397.076C234.059 397.657 234.51 398.445 234.648 399.442H231.606ZM240.225 405.591C239.358 405.591 238.561 405.387 237.833 404.98C237.114 404.573 236.542 404.009 236.117 403.29C235.692 402.571 235.48 401.76 235.48 400.859C235.48 399.958 235.692 399.147 236.117 398.428C236.542 397.709 237.114 397.15 237.833 396.751C238.561 396.344 239.358 396.14 240.225 396.14C241.092 396.14 241.885 396.344 242.604 396.751C243.323 397.15 243.891 397.709 244.307 398.428C244.732 399.147 244.944 399.958 244.944 400.859C244.944 401.76 244.732 402.571 244.307 403.29C243.891 404.009 243.319 404.573 242.591 404.98C241.872 405.387 241.083 405.591 240.225 405.591ZM240.225 402.9C240.797 402.9 241.239 402.718 241.551 402.354C241.863 401.981 242.019 401.483 242.019 400.859C242.019 400.226 241.863 399.728 241.551 399.364C241.239 398.991 240.797 398.805 240.225 398.805C239.644 398.805 239.198 398.991 238.886 399.364C238.574 399.728 238.418 400.226 238.418 400.859C238.418 401.483 238.574 401.981 238.886 402.354C239.198 402.718 239.644 402.9 240.225 402.9ZM250.613 405.5L248.884 402.198H248.871V405.5H245.985V396.296H250.275C251.02 396.296 251.657 396.43 252.186 396.699C252.715 396.959 253.109 397.319 253.369 397.778C253.638 398.229 253.772 398.74 253.772 399.312C253.772 399.927 253.599 400.473 253.252 400.95C252.914 401.427 252.424 401.769 251.783 401.977L253.785 405.5H250.613ZM248.871 400.274H250.015C250.292 400.274 250.5 400.213 250.639 400.092C250.778 399.962 250.847 399.763 250.847 399.494C250.847 399.251 250.773 399.061 250.626 398.922C250.487 398.783 250.284 398.714 250.015 398.714H248.871V400.274ZM260.596 404.109H257.528L257.073 405.5H254.044L257.411 396.296H260.739L264.093 405.5H261.051L260.596 404.109ZM259.894 401.938L259.062 399.377L258.23 401.938H259.894Z" fill="white"/>
<path d="M286.03 401.03C286.323 400.737 286.323 400.263 286.03 399.97L281.257 395.197C280.964 394.904 280.49 394.904 280.197 395.197C279.904 395.49 279.904 395.964 280.197 396.257L284.439 400.5L280.197 404.743C279.904 405.036 279.904 405.51 280.197 405.803C280.49 406.096 280.964 406.096 281.257 405.803L286.03 401.03ZM271.5 401.25H285.5V399.75H271.5V401.25Z" fill="white"/>
<circle cx="46" cy="235" r="9" fill="#FFCD54"/>
<path d="M42 234.945L44.8444 238L50 232" stroke="#3F3F3F" stroke-linecap="round" stroke-linejoin="round"/>
<path d="M77.48 240H75.998L71.539 233.253V240H70.057V230.952H71.539L75.998 237.686V230.952H77.48V240ZM83.5472 240.091C82.7065 240.091 81.9308 239.896 81.2202 239.506C80.5182 239.107 79.9592 238.557 79.5432 237.855C79.1358 237.144 78.9322 236.347 78.9322 235.463C78.9322 234.579 79.1358 233.786 79.5432 233.084C79.9592 232.382 80.5182 231.836 81.2202 231.446C81.9308 231.047 82.7065 230.848 83.5472 230.848C84.3965 230.848 85.1722 231.047 85.8742 231.446C86.5848 231.836 87.1438 232.382 87.5512 233.084C87.9585 233.786 88.1622 234.579 88.1622 235.463C88.1622 236.347 87.9585 237.144 87.5512 237.855C87.1438 238.557 86.5848 239.107 85.8742 239.506C85.1722 239.896 84.3965 240.091 83.5472 240.091ZM83.5472 238.804C84.1452 238.804 84.6782 238.67 85.1462 238.401C85.6142 238.124 85.9782 237.734 86.2382 237.231C86.5068 236.72 86.6412 236.13 86.6412 235.463C86.6412 234.796 86.5068 234.211 86.2382 233.708C85.9782 233.205 85.6142 232.82 85.1462 232.551C84.6782 232.282 84.1452 232.148 83.5472 232.148C82.9492 232.148 82.4162 232.282 81.9482 232.551C81.4802 232.82 81.1118 233.205 80.8432 233.708C80.5832 234.211 80.4532 234.796 80.4532 235.463C80.4532 236.13 80.5832 236.72 80.8432 237.231C81.1118 237.734 81.4802 238.124 81.9482 238.401C82.4162 238.67 82.9492 238.804 83.5472 238.804ZM97.4075 230.965L94.0145 240H92.2985L88.8925 230.965H90.4785L93.1565 238.479L95.8475 230.965H97.4075ZM102.768 240.091C101.927 240.091 101.152 239.896 100.441 239.506C99.7389 239.107 99.1799 238.557 98.7639 237.855C98.3565 237.144 98.1529 236.347 98.1529 235.463C98.1529 234.579 98.3565 233.786 98.7639 233.084C99.1799 232.382 99.7389 231.836 100.441 231.446C101.152 231.047 101.927 230.848 102.768 230.848C103.617 230.848 104.393 231.047 105.095 231.446C105.806 231.836 106.365 232.382 106.772 233.084C107.179 233.786 107.383 234.579 107.383 235.463C107.383 236.347 107.179 237.144 106.772 237.855C106.365 238.557 105.806 239.107 105.095 239.506C104.393 239.896 103.617 240.091 102.768 240.091ZM102.768 238.804C103.366 238.804 103.899 238.67 104.367 238.401C104.835 238.124 105.199 237.734 105.459 237.231C105.728 236.72 105.862 236.13 105.862 235.463C105.862 234.796 105.728 234.211 105.459 233.708C105.199 233.205 104.835 232.82 104.367 232.551C103.899 232.282 103.366 232.148 102.768 232.148C102.17 232.148 101.637 232.282 101.169 232.551C100.701 232.82 100.333 233.205 100.064 233.708C99.8039 234.211 99.6739 234.796 99.6739 235.463C99.6739 236.13 99.8039 236.72 100.064 237.231C100.333 237.734 100.701 238.124 101.169 238.401C101.637 238.67 102.17 238.804 102.768 238.804ZM118.536 233.656C118.536 234.115 118.428 234.549 118.211 234.956C117.994 235.363 117.648 235.697 117.171 235.957C116.694 236.208 116.083 236.334 115.338 236.334H113.7V240H112.218V230.965H115.338C116.031 230.965 116.616 231.086 117.093 231.329C117.578 231.563 117.938 231.884 118.172 232.291C118.415 232.698 118.536 233.153 118.536 233.656ZM115.338 235.125C115.901 235.125 116.322 234.999 116.599 234.748C116.876 234.488 117.015 234.124 117.015 233.656C117.015 232.668 116.456 232.174 115.338 232.174H113.7V235.125H115.338ZM121.432 238.804H124.487V240H119.95V230.965H121.432V238.804ZM131.173 238.154H127.39L126.74 240H125.193L128.43 230.952H130.146L133.383 240H131.823L131.173 238.154ZM130.757 236.945L129.288 232.746L127.806 236.945H130.757ZM142.213 240H140.731L136.272 233.253V240H134.79V230.952H136.272L140.731 237.686V230.952H142.213V240ZM145.642 232.161V234.813H148.762V236.022H145.642V238.791H149.152V240H144.16V230.952H149.152V232.161H145.642ZM155.904 230.965V237.478C155.904 238.284 155.657 238.921 155.163 239.389C154.678 239.857 154.036 240.091 153.239 240.091C152.442 240.091 151.796 239.857 151.302 239.389C150.817 238.921 150.574 238.284 150.574 237.478H152.069C152.078 237.877 152.177 238.193 152.368 238.427C152.567 238.661 152.858 238.778 153.239 238.778C153.62 238.778 153.911 238.661 154.11 238.427C154.309 238.184 154.409 237.868 154.409 237.478V230.965H155.904ZM163.762 238.154H159.979L159.329 240H157.782L161.019 230.952H162.735L165.972 240H164.412L163.762 238.154ZM163.346 236.945L161.877 232.746L160.395 236.945H163.346ZM176.895 230.965V240H175.413V233.812L172.657 240H171.63L168.861 233.812V240H167.379V230.965H168.978L172.15 238.05L175.309 230.965H176.895ZM180.325 232.161V234.813H183.445V236.022H180.325V238.791H183.835V240H178.843V230.952H183.835V232.161H180.325ZM193.084 240H191.602L187.143 233.253V240H185.661V230.952H187.143L191.602 237.686V230.952H193.084V240ZM200.867 230.965V232.174H198.462V240H196.98V232.174H194.562V230.965H200.867ZM206.489 240.091C205.648 240.091 204.872 239.896 204.162 239.506C203.46 239.107 202.901 238.557 202.485 237.855C202.077 237.144 201.874 236.347 201.874 235.463C201.874 234.579 202.077 233.786 202.485 233.084C202.901 232.382 203.46 231.836 204.162 231.446C204.872 231.047 205.648 230.848 206.489 230.848C207.338 230.848 208.114 231.047 208.816 231.446C209.526 231.836 210.085 232.382 210.493 233.084C210.9 233.786 211.104 234.579 211.104 235.463C211.104 236.347 210.9 237.144 210.493 237.855C210.085 238.557 209.526 239.107 208.816 239.506C208.114 239.896 207.338 240.091 206.489 240.091ZM206.489 238.804C207.087 238.804 207.62 238.67 208.088 238.401C208.556 238.124 208.92 237.734 209.18 237.231C209.448 236.72 209.583 236.13 209.583 235.463C209.583 234.796 209.448 234.211 209.18 233.708C208.92 233.205 208.556 232.82 208.088 232.551C207.62 232.282 207.087 232.148 206.489 232.148C205.891 232.148 205.358 232.282 204.89 232.551C204.422 232.82 204.053 233.205 203.785 233.708C203.525 234.211 203.395 234.796 203.395 235.463C203.395 236.13 203.525 236.72 203.785 237.231C204.053 237.734 204.422 238.124 204.89 238.401C205.358 238.67 205.891 238.804 206.489 238.804ZM215.445 236.386C215.445 235.667 215.592 235.03 215.887 234.475C216.19 233.92 216.598 233.491 217.109 233.188C217.629 232.876 218.201 232.72 218.825 232.72C219.388 232.72 219.878 232.833 220.294 233.058C220.719 233.275 221.057 233.548 221.308 233.877V232.837H222.803V240H221.308V238.934C221.057 239.272 220.714 239.554 220.281 239.779C219.848 240.004 219.354 240.117 218.799 240.117C218.184 240.117 217.62 239.961 217.109 239.649C216.598 239.328 216.19 238.886 215.887 238.323C215.592 237.751 215.445 237.105 215.445 236.386ZM221.308 236.412C221.308 235.918 221.204 235.489 220.996 235.125C220.797 234.761 220.532 234.484 220.203 234.293C219.874 234.102 219.518 234.007 219.137 234.007C218.756 234.007 218.4 234.102 218.071 234.293C217.742 234.475 217.473 234.748 217.265 235.112C217.066 235.467 216.966 235.892 216.966 236.386C216.966 236.88 217.066 237.313 217.265 237.686C217.473 238.059 217.742 238.345 218.071 238.544C218.409 238.735 218.764 238.83 219.137 238.83C219.518 238.83 219.874 238.735 220.203 238.544C220.532 238.353 220.797 238.076 220.996 237.712C221.204 237.339 221.308 236.906 221.308 236.412ZM227.632 236.412C227.632 235.675 227.78 235.03 228.074 234.475C228.378 233.912 228.794 233.478 229.322 233.175C229.851 232.872 230.458 232.72 231.142 232.72C232.009 232.72 232.724 232.928 233.287 233.344C233.859 233.751 234.245 234.336 234.444 235.099H232.845C232.715 234.744 232.507 234.466 232.221 234.267C231.935 234.068 231.576 233.968 231.142 233.968C230.536 233.968 230.05 234.185 229.686 234.618C229.331 235.043 229.153 235.641 229.153 236.412C229.153 237.183 229.331 237.786 229.686 238.219C230.05 238.652 230.536 238.869 231.142 238.869C232 238.869 232.568 238.492 232.845 237.738H234.444C234.236 238.466 233.846 239.047 233.274 239.48C232.702 239.905 231.992 240.117 231.142 240.117C230.458 240.117 229.851 239.965 229.322 239.662C228.794 239.35 228.378 238.917 228.074 238.362C227.78 237.799 227.632 237.149 227.632 236.412ZM235.427 236.386C235.427 235.667 235.575 235.03 235.869 234.475C236.173 233.92 236.58 233.491 237.091 233.188C237.611 232.876 238.183 232.72 238.807 232.72C239.371 232.72 239.86 232.833 240.276 233.058C240.701 233.275 241.039 233.548 241.29 233.877V232.837H242.785V240H241.29V238.934C241.039 239.272 240.697 239.554 240.263 239.779C239.83 240.004 239.336 240.117 238.781 240.117C238.166 240.117 237.603 239.961 237.091 239.649C236.58 239.328 236.173 238.886 235.869 238.323C235.575 237.751 235.427 237.105 235.427 236.386ZM241.29 236.412C241.29 235.918 241.186 235.489 240.978 235.125C240.779 234.761 240.515 234.484 240.185 234.293C239.856 234.102 239.501 234.007 239.119 234.007C238.738 234.007 238.383 234.102 238.053 234.293C237.724 234.475 237.455 234.748 237.247 235.112C237.048 235.467 236.948 235.892 236.948 236.386C236.948 236.88 237.048 237.313 237.247 237.686C237.455 238.059 237.724 238.345 238.053 238.544C238.391 238.735 238.747 238.83 239.119 238.83C239.501 238.83 239.856 238.735 240.185 238.544C240.515 238.353 240.779 238.076 240.978 237.712C241.186 237.339 241.29 236.906 241.29 236.412ZM244.238 236.386C244.238 235.667 244.385 235.03 244.68 234.475C244.983 233.92 245.391 233.491 245.902 233.188C246.422 232.876 246.998 232.72 247.631 232.72C248.099 232.72 248.558 232.824 249.009 233.032C249.468 233.231 249.832 233.5 250.101 233.838V230.38H251.596V240H250.101V238.921C249.858 239.268 249.52 239.554 249.087 239.779C248.662 240.004 248.173 240.117 247.618 240.117C246.994 240.117 246.422 239.961 245.902 239.649C245.391 239.328 244.983 238.886 244.68 238.323C244.385 237.751 244.238 237.105 244.238 236.386ZM250.101 236.412C250.101 235.918 249.997 235.489 249.789 235.125C249.59 234.761 249.325 234.484 248.996 234.293C248.667 234.102 248.311 234.007 247.93 234.007C247.549 234.007 247.193 234.102 246.864 234.293C246.535 234.475 246.266 234.748 246.058 235.112C245.859 235.467 245.759 235.892 245.759 236.386C245.759 236.88 245.859 237.313 246.058 237.686C246.266 238.059 246.535 238.345 246.864 238.544C247.202 238.735 247.557 238.83 247.93 238.83C248.311 238.83 248.667 238.735 248.996 238.544C249.325 238.353 249.59 238.076 249.789 237.712C249.997 237.339 250.101 236.906 250.101 236.412ZM253.048 236.386C253.048 235.667 253.196 235.03 253.49 234.475C253.794 233.92 254.201 233.491 254.712 233.188C255.232 232.876 255.804 232.72 256.428 232.72C256.992 232.72 257.481 232.833 257.897 233.058C258.322 233.275 258.66 233.548 258.911 233.877V232.837H260.406V240H258.911V238.934C258.66 239.272 258.318 239.554 257.884 239.779C257.451 240.004 256.957 240.117 256.402 240.117C255.787 240.117 255.224 239.961 254.712 239.649C254.201 239.328 253.794 238.886 253.49 238.323C253.196 237.751 253.048 237.105 253.048 236.386ZM258.911 236.412C258.911 235.918 258.807 235.489 258.599 235.125C258.4 234.761 258.136 234.484 257.806 234.293C257.477 234.102 257.122 234.007 256.74 234.007C256.359 234.007 256.004 234.102 255.674 234.293C255.345 234.475 255.076 234.748 254.868 235.112C254.669 235.467 254.569 235.892 254.569 236.386C254.569 236.88 254.669 237.313 254.868 237.686C255.076 238.059 255.345 238.345 255.674 238.544C256.012 238.735 256.368 238.83 256.74 238.83C257.122 238.83 257.477 238.735 257.806 238.544C258.136 238.353 258.4 238.076 258.599 237.712C258.807 237.339 258.911 236.906 258.911 236.412ZM271.645 231.797H267.29V234.384C267.472 234.141 267.741 233.938 268.096 233.773C268.46 233.608 268.846 233.526 269.253 233.526C269.981 233.526 270.57 233.682 271.021 233.994C271.48 234.306 271.805 234.7 271.996 235.177C272.195 235.654 272.295 236.156 272.295 236.685C272.295 237.326 272.169 237.898 271.918 238.401C271.675 238.895 271.307 239.285 270.813 239.571C270.328 239.857 269.73 240 269.019 240C268.074 240 267.316 239.766 266.744 239.298C266.172 238.83 265.83 238.21 265.717 237.439H267.16C267.255 237.846 267.468 238.171 267.797 238.414C268.126 238.648 268.538 238.765 269.032 238.765C269.647 238.765 270.107 238.579 270.41 238.206C270.722 237.833 270.878 237.339 270.878 236.724C270.878 236.1 270.722 235.623 270.41 235.294C270.098 234.956 269.639 234.787 269.032 234.787C268.607 234.787 268.248 234.895 267.953 235.112C267.667 235.32 267.459 235.606 267.329 235.97H265.925V230.497H271.645V231.797ZM280.01 240.117C279.446 240.117 278.939 240.017 278.489 239.818C278.047 239.61 277.696 239.333 277.436 238.986C277.176 238.631 277.037 238.236 277.02 237.803H278.554C278.58 238.106 278.723 238.362 278.983 238.57C279.251 238.769 279.585 238.869 279.984 238.869C280.4 238.869 280.72 238.791 280.946 238.635C281.18 238.47 281.297 238.262 281.297 238.011C281.297 237.742 281.167 237.543 280.907 237.413C280.655 237.283 280.252 237.14 279.698 236.984C279.16 236.837 278.723 236.694 278.385 236.555C278.047 236.416 277.752 236.204 277.501 235.918C277.258 235.632 277.137 235.255 277.137 234.787C277.137 234.406 277.249 234.059 277.475 233.747C277.7 233.426 278.021 233.175 278.437 232.993C278.861 232.811 279.347 232.72 279.893 232.72C280.707 232.72 281.362 232.928 281.856 233.344C282.358 233.751 282.627 234.31 282.662 235.021H281.18C281.154 234.7 281.024 234.445 280.79 234.254C280.556 234.063 280.239 233.968 279.841 233.968C279.451 233.968 279.152 234.042 278.944 234.189C278.736 234.336 278.632 234.531 278.632 234.774C278.632 234.965 278.701 235.125 278.84 235.255C278.978 235.385 279.147 235.489 279.347 235.567C279.546 235.636 279.841 235.727 280.231 235.84C280.751 235.979 281.175 236.122 281.505 236.269C281.843 236.408 282.133 236.616 282.376 236.893C282.618 237.17 282.744 237.539 282.753 237.998C282.753 238.405 282.64 238.769 282.415 239.09C282.189 239.411 281.869 239.662 281.453 239.844C281.045 240.026 280.564 240.117 280.01 240.117ZM290.919 236.243C290.919 236.512 290.902 236.754 290.867 236.971H285.394C285.437 237.543 285.65 238.002 286.031 238.349C286.412 238.696 286.88 238.869 287.435 238.869C288.232 238.869 288.796 238.535 289.125 237.868H290.724C290.507 238.527 290.113 239.068 289.541 239.493C288.978 239.909 288.276 240.117 287.435 240.117C286.75 240.117 286.135 239.965 285.589 239.662C285.052 239.35 284.627 238.917 284.315 238.362C284.012 237.799 283.86 237.149 283.86 236.412C283.86 235.675 284.007 235.03 284.302 234.475C284.605 233.912 285.026 233.478 285.563 233.175C286.109 232.872 286.733 232.72 287.435 232.72C288.111 232.72 288.713 232.867 289.242 233.162C289.771 233.457 290.182 233.873 290.477 234.41C290.772 234.939 290.919 235.55 290.919 236.243ZM289.372 235.775C289.363 235.229 289.168 234.791 288.787 234.462C288.406 234.133 287.933 233.968 287.37 233.968C286.859 233.968 286.421 234.133 286.057 234.462C285.693 234.783 285.476 235.22 285.407 235.775H289.372ZM301.048 232.72C301.612 232.72 302.114 232.837 302.556 233.071C303.007 233.305 303.358 233.652 303.609 234.111C303.869 234.57 303.999 235.125 303.999 235.775V240H302.53V235.996C302.53 235.355 302.37 234.865 302.049 234.527C301.729 234.18 301.291 234.007 300.736 234.007C300.182 234.007 299.74 234.18 299.41 234.527C299.09 234.865 298.929 235.355 298.929 235.996V240H297.46V235.996C297.46 235.355 297.3 234.865 296.979 234.527C296.659 234.18 296.221 234.007 295.666 234.007C295.112 234.007 294.67 234.18 294.34 234.527C294.02 234.865 293.859 235.355 293.859 235.996V240H292.377V232.837H293.859V233.656C294.102 233.361 294.41 233.132 294.782 232.967C295.155 232.802 295.554 232.72 295.978 232.72C296.55 232.72 297.062 232.841 297.512 233.084C297.963 233.327 298.31 233.678 298.552 234.137C298.769 233.704 299.107 233.361 299.566 233.11C300.026 232.85 300.52 232.72 301.048 232.72ZM305.391 236.386C305.391 235.667 305.538 235.03 305.833 234.475C306.136 233.92 306.544 233.491 307.055 233.188C307.575 232.876 308.147 232.72 308.771 232.72C309.334 232.72 309.824 232.833 310.24 233.058C310.665 233.275 311.003 233.548 311.254 233.877V232.837H312.749V240H311.254V238.934C311.003 239.272 310.66 239.554 310.227 239.779C309.794 240.004 309.3 240.117 308.745 240.117C308.13 240.117 307.566 239.961 307.055 239.649C306.544 239.328 306.136 238.886 305.833 238.323C305.538 237.751 305.391 237.105 305.391 236.386ZM311.254 236.412C311.254 235.918 311.15 235.489 310.942 235.125C310.743 234.761 310.478 234.484 310.149 234.293C309.82 234.102 309.464 234.007 309.083 234.007C308.702 234.007 308.346 234.102 308.017 234.293C307.688 234.475 307.419 234.748 307.211 235.112C307.012 235.467 306.912 235.892 306.912 236.386C306.912 236.88 307.012 237.313 307.211 237.686C307.419 238.059 307.688 238.345 308.017 238.544C308.355 238.735 308.71 238.83 309.083 238.83C309.464 238.83 309.82 238.735 310.149 238.544C310.478 238.353 310.743 238.076 310.942 237.712C311.15 237.339 311.254 236.906 311.254 236.412ZM318.31 232.72C318.873 232.72 319.376 232.837 319.818 233.071C320.268 233.305 320.619 233.652 320.871 234.111C321.122 234.57 321.248 235.125 321.248 235.775V240H319.779V235.996C319.779 235.355 319.618 234.865 319.298 234.527C318.977 234.18 318.539 234.007 317.985 234.007C317.43 234.007 316.988 234.18 316.659 234.527C316.338 234.865 316.178 235.355 316.178 235.996V240H314.696V232.837H316.178V233.656C316.42 233.361 316.728 233.132 317.101 232.967C317.482 232.802 317.885 232.72 318.31 232.72ZM322.644 236.386C322.644 235.667 322.791 235.03 323.086 234.475C323.389 233.92 323.797 233.491 324.308 233.188C324.828 232.876 325.4 232.72 326.024 232.72C326.587 232.72 327.077 232.833 327.493 233.058C327.918 233.275 328.256 233.548 328.507 233.877V232.837H330.002V240H328.507V238.934C328.256 239.272 327.913 239.554 327.48 239.779C327.047 240.004 326.553 240.117 325.998 240.117C325.383 240.117 324.819 239.961 324.308 239.649C323.797 239.328 323.389 238.886 323.086 238.323C322.791 237.751 322.644 237.105 322.644 236.386ZM328.507 236.412C328.507 235.918 328.403 235.489 328.195 235.125C327.996 234.761 327.731 234.484 327.402 234.293C327.073 234.102 326.717 234.007 326.336 234.007C325.955 234.007 325.599 234.102 325.27 234.293C324.941 234.475 324.672 234.748 324.464 235.112C324.265 235.467 324.165 235.892 324.165 236.386C324.165 236.88 324.265 237.313 324.464 237.686C324.672 238.059 324.941 238.345 325.27 238.544C325.608 238.735 325.963 238.83 326.336 238.83C326.717 238.83 327.073 238.735 327.402 238.544C327.731 238.353 327.996 238.076 328.195 237.712C328.403 237.339 328.507 236.906 328.507 236.412ZM334.549 240.117C333.985 240.117 333.478 240.017 333.028 239.818C332.586 239.61 332.235 239.333 331.975 238.986C331.715 238.631 331.576 238.236 331.559 237.803H333.093C333.119 238.106 333.262 238.362 333.522 238.57C333.79 238.769 334.124 238.869 334.523 238.869C334.939 238.869 335.259 238.791 335.485 238.635C335.719 238.47 335.836 238.262 335.836 238.011C335.836 237.742 335.706 237.543 335.446 237.413C335.194 237.283 334.791 237.14 334.237 236.984C333.699 236.837 333.262 236.694 332.924 236.555C332.586 236.416 332.291 236.204 332.04 235.918C331.797 235.632 331.676 235.255 331.676 234.787C331.676 234.406 331.788 234.059 332.014 233.747C332.239 233.426 332.56 233.175 332.976 232.993C333.4 232.811 333.886 232.72 334.432 232.72C335.246 232.72 335.901 232.928 336.395 233.344C336.897 233.751 337.166 234.31 337.201 235.021H335.719C335.693 234.7 335.563 234.445 335.329 234.254C335.095 234.063 334.778 233.968 334.38 233.968C333.99 233.968 333.691 234.042 333.483 234.189C333.275 234.336 333.171 234.531 333.171 234.774C333.171 234.965 333.24 235.125 333.379 235.255C333.517 235.385 333.686 235.489 333.886 235.567C334.085 235.636 334.38 235.727 334.77 235.84C335.29 235.979 335.714 236.122 336.044 236.269C336.382 236.408 336.672 236.616 336.915 236.893C337.157 237.17 337.283 237.539 337.292 237.998C337.292 238.405 337.179 238.769 336.954 239.09C336.728 239.411 336.408 239.662 335.992 239.844C335.584 240.026 335.103 240.117 334.549 240.117Z" fill="white"/>
<circle cx="46" cy="335" r="9" fill="#FFCD54"/>
<path d="M42 334.945L44.8444 338L50 332" stroke="#3F3F3F" stroke-linecap="round" stroke-linejoin="round"/>
<path d="M78.4303 338.154H74.6473L73.9973 340H72.4503L75.6873 330.952H77.4033L80.6403 340H79.0803L78.4303 338.154ZM78.0143 336.945L76.5453 332.746L75.0633 336.945H78.0143ZM87.8848 330.965V332.174H85.4798V340H83.9978V332.174H81.5798V330.965H87.8848ZM90.8676 332.161V334.813H93.9876V336.022H90.8676V338.791H94.3776V340H89.3856V330.952H94.3776V332.161H90.8676ZM103.626 340H102.144L97.685 333.253V340H96.203V330.952H97.685L102.144 337.686V330.952H103.626V340ZM108.523 330.965C109.485 330.965 110.326 331.151 111.045 331.524C111.773 331.888 112.332 332.417 112.722 333.11C113.121 333.795 113.32 334.596 113.32 335.515C113.32 336.434 113.121 337.231 112.722 337.907C112.332 338.583 111.773 339.103 111.045 339.467C110.326 339.822 109.485 340 108.523 340H105.572V330.965H108.523ZM108.523 338.791C109.581 338.791 110.391 338.505 110.954 337.933C111.518 337.361 111.799 336.555 111.799 335.515C111.799 334.466 111.518 333.647 110.954 333.058C110.391 332.469 109.581 332.174 108.523 332.174H107.054V338.791H108.523ZM116.271 330.965V340H114.789V330.965H116.271ZM127.733 330.965V340H126.251V333.812L123.495 340H122.468L119.699 333.812V340H118.217V330.965H119.816L122.988 338.05L126.147 330.965H127.733ZM131.163 332.161V334.813H134.283V336.022H131.163V338.791H134.673V340H129.681V330.952H134.673V332.161H131.163ZM143.921 340H142.439L137.98 333.253V340H136.498V330.952H137.98L142.439 337.686V330.952H143.921V340ZM151.704 330.965V332.174H149.299V340H147.817V332.174H145.399V330.965H151.704ZM157.326 340.091C156.485 340.091 155.71 339.896 154.999 339.506C154.297 339.107 153.738 338.557 153.322 337.855C152.915 337.144 152.711 336.347 152.711 335.463C152.711 334.579 152.915 333.786 153.322 333.084C153.738 332.382 154.297 331.836 154.999 331.446C155.71 331.047 156.485 330.848 157.326 330.848C158.175 330.848 158.951 331.047 159.653 331.446C160.364 331.836 160.923 332.382 161.33 333.084C161.737 333.786 161.941 334.579 161.941 335.463C161.941 336.347 161.737 337.144 161.33 337.855C160.923 338.557 160.364 339.107 159.653 339.506C158.951 339.896 158.175 340.091 157.326 340.091ZM157.326 338.804C157.924 338.804 158.457 338.67 158.925 338.401C159.393 338.124 159.757 337.734 160.017 337.231C160.286 336.72 160.42 336.13 160.42 335.463C160.42 334.796 160.286 334.211 160.017 333.708C159.757 333.205 159.393 332.82 158.925 332.551C158.457 332.282 157.924 332.148 157.326 332.148C156.728 332.148 156.195 332.282 155.727 332.551C155.259 332.82 154.891 333.205 154.622 333.708C154.362 334.211 154.232 334.796 154.232 335.463C154.232 336.13 154.362 336.72 154.622 337.231C154.891 337.734 155.259 338.124 155.727 338.401C156.195 338.67 156.728 338.804 157.326 338.804ZM171.469 340L169.389 336.386H168.258V340H166.776V330.965H169.896C170.59 330.965 171.175 331.086 171.651 331.329C172.137 331.572 172.496 331.897 172.73 332.304C172.973 332.711 173.094 333.166 173.094 333.669C173.094 334.258 172.921 334.796 172.574 335.281C172.236 335.758 171.712 336.083 171.001 336.256L173.237 340H171.469ZM168.258 335.203H169.896C170.451 335.203 170.867 335.064 171.144 334.787C171.43 334.51 171.573 334.137 171.573 333.669C171.573 333.201 171.435 332.837 171.157 332.577C170.88 332.308 170.46 332.174 169.896 332.174H168.258V335.203ZM180.437 338.154H176.654L176.004 340H174.457L177.694 330.952H179.41L182.647 340H181.087L180.437 338.154ZM180.021 336.945L178.552 332.746L177.07 336.945H180.021ZM179.891 329.028L177.018 330.445V329.353L179.891 327.767V329.028ZM190.373 333.656C190.373 334.115 190.264 334.549 190.048 334.956C189.831 335.363 189.484 335.697 189.008 335.957C188.531 336.208 187.92 336.334 187.175 336.334H185.537V340H184.055V330.965H187.175C187.868 330.965 188.453 331.086 188.93 331.329C189.415 331.563 189.775 331.884 190.009 332.291C190.251 332.698 190.373 333.153 190.373 333.656ZM187.175 335.125C187.738 335.125 188.158 334.999 188.436 334.748C188.713 334.488 188.852 334.124 188.852 333.656C188.852 332.668 188.293 332.174 187.175 332.174H185.537V335.125H187.175ZM193.268 330.965V340H191.786V330.965H193.268ZM198.165 330.965C199.127 330.965 199.967 331.151 200.687 331.524C201.415 331.888 201.974 332.417 202.364 333.11C202.762 333.795 202.962 334.596 202.962 335.515C202.962 336.434 202.762 337.231 202.364 337.907C201.974 338.583 201.415 339.103 200.687 339.467C199.967 339.822 199.127 340 198.165 340H195.214V330.965H198.165ZM198.165 338.791C199.222 338.791 200.032 338.505 200.596 337.933C201.159 337.361 201.441 336.555 201.441 335.515C201.441 334.466 201.159 333.647 200.596 333.058C200.032 332.469 199.222 332.174 198.165 332.174H196.696V338.791H198.165ZM208.552 340.091C207.711 340.091 206.935 339.896 206.225 339.506C205.523 339.107 204.964 338.557 204.548 337.855C204.14 337.144 203.937 336.347 203.937 335.463C203.937 334.579 204.14 333.786 204.548 333.084C204.964 332.382 205.523 331.836 206.225 331.446C206.935 331.047 207.711 330.848 208.552 330.848C209.401 330.848 210.177 331.047 210.879 331.446C211.589 331.836 212.148 332.382 212.556 333.084C212.963 333.786 213.167 334.579 213.167 335.463C213.167 336.347 212.963 337.144 212.556 337.855C212.148 338.557 211.589 339.107 210.879 339.506C210.177 339.896 209.401 340.091 208.552 340.091ZM208.552 338.804C209.15 338.804 209.683 338.67 210.151 338.401C210.619 338.124 210.983 337.734 211.243 337.231C211.511 336.72 211.646 336.13 211.646 335.463C211.646 334.796 211.511 334.211 211.243 333.708C210.983 333.205 210.619 332.82 210.151 332.551C209.683 332.282 209.15 332.148 208.552 332.148C207.954 332.148 207.421 332.282 206.953 332.551C206.485 332.82 206.116 333.205 205.848 333.708C205.588 334.211 205.458 334.796 205.458 335.463C205.458 336.13 205.588 336.72 205.848 337.231C206.116 337.734 206.485 338.124 206.953 338.401C207.421 338.67 207.954 338.804 208.552 338.804ZM219.484 333.89C219.735 333.561 220.078 333.283 220.511 333.058C220.944 332.833 221.434 332.72 221.98 332.72C222.604 332.72 223.172 332.876 223.683 333.188C224.203 333.491 224.61 333.92 224.905 334.475C225.2 335.03 225.347 335.667 225.347 336.386C225.347 337.105 225.2 337.751 224.905 338.323C224.61 338.886 224.203 339.328 223.683 339.649C223.172 339.961 222.604 340.117 221.98 340.117C221.434 340.117 220.949 340.009 220.524 339.792C220.099 339.567 219.753 339.289 219.484 338.96V343.406H218.002V332.837H219.484V333.89ZM223.839 336.386C223.839 335.892 223.735 335.467 223.527 335.112C223.328 334.748 223.059 334.475 222.721 334.293C222.392 334.102 222.036 334.007 221.655 334.007C221.282 334.007 220.927 334.102 220.589 334.293C220.26 334.484 219.991 334.761 219.783 335.125C219.584 335.489 219.484 335.918 219.484 336.412C219.484 336.906 219.584 337.339 219.783 337.712C219.991 338.076 220.26 338.353 220.589 338.544C220.927 338.735 221.282 338.83 221.655 338.83C222.036 338.83 222.392 338.735 222.721 338.544C223.059 338.345 223.328 338.059 223.527 337.686C223.735 337.313 223.839 336.88 223.839 336.386ZM226.318 336.386C226.318 335.667 226.466 335.03 226.76 334.475C227.064 333.92 227.471 333.491 227.982 333.188C228.502 332.876 229.074 332.72 229.698 332.72C230.262 332.72 230.751 332.833 231.167 333.058C231.592 333.275 231.93 333.548 232.181 333.877V332.837H233.676V340H232.181V338.934C231.93 339.272 231.588 339.554 231.154 339.779C230.721 340.004 230.227 340.117 229.672 340.117C229.057 340.117 228.494 339.961 227.982 339.649C227.471 339.328 227.064 338.886 226.76 338.323C226.466 337.751 226.318 337.105 226.318 336.386ZM232.181 336.412C232.181 335.918 232.077 335.489 231.869 335.125C231.67 334.761 231.406 334.484 231.076 334.293C230.747 334.102 230.392 334.007 230.01 334.007C229.629 334.007 229.274 334.102 228.944 334.293C228.615 334.475 228.346 334.748 228.138 335.112C227.939 335.467 227.839 335.892 227.839 336.386C227.839 336.88 227.939 337.313 228.138 337.686C228.346 338.059 228.615 338.345 228.944 338.544C229.282 338.735 229.638 338.83 230.01 338.83C230.392 338.83 230.747 338.735 231.076 338.544C231.406 338.353 231.67 338.076 231.869 337.712C232.077 337.339 232.181 336.906 232.181 336.412ZM237.105 333.877C237.322 333.513 237.608 333.231 237.963 333.032C238.327 332.824 238.756 332.72 239.25 332.72V334.254H238.873C238.292 334.254 237.85 334.401 237.547 334.696C237.252 334.991 237.105 335.502 237.105 336.23V340H235.623V332.837H237.105V333.877ZM240.118 336.386C240.118 335.667 240.266 335.03 240.56 334.475C240.864 333.92 241.271 333.491 241.782 333.188C242.302 332.876 242.874 332.72 243.498 332.72C244.062 332.72 244.551 332.833 244.967 333.058C245.392 333.275 245.73 333.548 245.981 333.877V332.837H247.476V340H245.981V338.934C245.73 339.272 245.388 339.554 244.954 339.779C244.521 340.004 244.027 340.117 243.472 340.117C242.857 340.117 242.294 339.961 241.782 339.649C241.271 339.328 240.864 338.886 240.56 338.323C240.266 337.751 240.118 337.105 240.118 336.386ZM245.981 336.412C245.981 335.918 245.877 335.489 245.669 335.125C245.47 334.761 245.206 334.484 244.876 334.293C244.547 334.102 244.192 334.007 243.81 334.007C243.429 334.007 243.074 334.102 242.744 334.293C242.415 334.475 242.146 334.748 241.938 335.112C241.739 335.467 241.639 335.892 241.639 336.386C241.639 336.88 241.739 337.313 241.938 337.686C242.146 338.059 242.415 338.345 242.744 338.544C243.082 338.735 243.438 338.83 243.81 338.83C244.192 338.83 244.547 338.735 244.876 338.544C245.206 338.353 245.47 338.076 245.669 337.712C245.877 337.339 245.981 336.906 245.981 336.412ZM254.529 334.046V338.011C254.529 338.28 254.589 338.475 254.711 338.596C254.841 338.709 255.057 338.765 255.361 338.765H256.271V340H255.101C254.433 340 253.922 339.844 253.567 339.532C253.211 339.22 253.034 338.713 253.034 338.011V334.046H252.189V332.837H253.034V331.056H254.529V332.837H256.271V334.046H254.529ZM258.391 331.888C258.122 331.888 257.897 331.797 257.715 331.615C257.533 331.433 257.442 331.208 257.442 330.939C257.442 330.67 257.533 330.445 257.715 330.263C257.897 330.081 258.122 329.99 258.391 329.99C258.651 329.99 258.872 330.081 259.054 330.263C259.236 330.445 259.327 330.67 259.327 330.939C259.327 331.208 259.236 331.433 259.054 331.615C258.872 331.797 258.651 331.888 258.391 331.888ZM259.119 332.837V340H257.637V332.837H259.119ZM262.546 333.877C262.763 333.513 263.049 333.231 263.404 333.032C263.768 332.824 264.197 332.72 264.691 332.72V334.254H264.314C263.734 334.254 263.292 334.401 262.988 334.696C262.694 334.991 262.546 335.502 262.546 336.23V340H261.064V332.837H262.546V333.877ZM265.56 336.386C265.56 335.667 265.707 335.03 266.002 334.475C266.305 333.92 266.712 333.491 267.224 333.188C267.744 332.876 268.316 332.72 268.94 332.72C269.503 332.72 269.993 332.833 270.409 333.058C270.833 333.275 271.171 333.548 271.423 333.877V332.837H272.918V340H271.423V338.934C271.171 339.272 270.829 339.554 270.396 339.779C269.962 340.004 269.468 340.117 268.914 340.117C268.298 340.117 267.735 339.961 267.224 339.649C266.712 339.328 266.305 338.886 266.002 338.323C265.707 337.751 265.56 337.105 265.56 336.386ZM271.423 336.412C271.423 335.918 271.319 335.489 271.111 335.125C270.911 334.761 270.647 334.484 270.318 334.293C269.988 334.102 269.633 334.007 269.252 334.007C268.87 334.007 268.515 334.102 268.186 334.293C267.856 334.475 267.588 334.748 267.38 335.112C267.18 335.467 267.081 335.892 267.081 336.386C267.081 336.88 267.18 337.313 267.38 337.686C267.588 338.059 267.856 338.345 268.186 338.544C268.524 338.735 268.879 338.83 269.252 338.83C269.633 338.83 269.988 338.735 270.318 338.544C270.647 338.353 270.911 338.076 271.111 337.712C271.319 337.339 271.423 336.906 271.423 336.412ZM276.346 333.877C276.563 333.513 276.849 333.231 277.204 333.032C277.568 332.824 277.997 332.72 278.491 332.72V334.254H278.114C277.533 334.254 277.091 334.401 276.788 334.696C276.493 334.991 276.346 335.502 276.346 336.23V340H274.864V332.837H276.346V333.877ZM282.736 336.386C282.736 335.667 282.884 335.03 283.178 334.475C283.482 333.92 283.889 333.491 284.4 333.188C284.92 332.876 285.497 332.72 286.129 332.72C286.597 332.72 287.057 332.824 287.507 333.032C287.967 333.231 288.331 333.5 288.599 333.838V330.38H290.094V340H288.599V338.921C288.357 339.268 288.019 339.554 287.585 339.779C287.161 340.004 286.671 340.117 286.116 340.117C285.492 340.117 284.92 339.961 284.4 339.649C283.889 339.328 283.482 338.886 283.178 338.323C282.884 337.751 282.736 337.105 282.736 336.386ZM288.599 336.412C288.599 335.918 288.495 335.489 288.287 335.125C288.088 334.761 287.824 334.484 287.494 334.293C287.165 334.102 286.81 334.007 286.428 334.007C286.047 334.007 285.692 334.102 285.362 334.293C285.033 334.475 284.764 334.748 284.556 335.112C284.357 335.467 284.257 335.892 284.257 336.386C284.257 336.88 284.357 337.313 284.556 337.686C284.764 338.059 285.033 338.345 285.362 338.544C285.7 338.735 286.056 338.83 286.428 338.83C286.81 338.83 287.165 338.735 287.494 338.544C287.824 338.353 288.088 338.076 288.287 337.712C288.495 337.339 288.599 336.906 288.599 336.412ZM298.528 332.837V340H297.046V339.155C296.812 339.45 296.504 339.684 296.123 339.857C295.75 340.022 295.352 340.104 294.927 340.104C294.364 340.104 293.857 339.987 293.406 339.753C292.964 339.519 292.613 339.172 292.353 338.713C292.102 338.254 291.976 337.699 291.976 337.049V332.837H293.445V336.828C293.445 337.469 293.605 337.963 293.926 338.31C294.247 338.648 294.684 338.817 295.239 338.817C295.794 338.817 296.231 338.648 296.552 338.31C296.881 337.963 297.046 337.469 297.046 336.828V332.837H298.528ZM296.63 330.913L293.757 332.33V331.238L296.63 329.652V330.913ZM303.252 338.674L305.28 332.837H306.853L304.123 340H302.355L299.638 332.837H301.224L303.252 338.674ZM308.728 331.888C308.459 331.888 308.234 331.797 308.052 331.615C307.87 331.433 307.779 331.208 307.779 330.939C307.779 330.67 307.87 330.445 308.052 330.263C308.234 330.081 308.459 329.99 308.728 329.99C308.988 329.99 309.209 330.081 309.391 330.263C309.573 330.445 309.664 330.67 309.664 330.939C309.664 331.208 309.573 331.433 309.391 331.615C309.209 331.797 308.988 331.888 308.728 331.888ZM309.456 332.837V340H307.974V332.837H309.456ZM310.907 336.386C310.907 335.667 311.055 335.03 311.349 334.475C311.653 333.92 312.06 333.491 312.571 333.188C313.091 332.876 313.668 332.72 314.3 332.72C314.768 332.72 315.228 332.824 315.678 333.032C316.138 333.231 316.502 333.5 316.77 333.838V330.38H318.265V340H316.77V338.921C316.528 339.268 316.19 339.554 315.756 339.779C315.332 340.004 314.842 340.117 314.287 340.117C313.663 340.117 313.091 339.961 312.571 339.649C312.06 339.328 311.653 338.886 311.349 338.323C311.055 337.751 310.907 337.105 310.907 336.386ZM316.77 336.412C316.77 335.918 316.666 335.489 316.458 335.125C316.259 334.761 315.995 334.484 315.665 334.293C315.336 334.102 314.981 334.007 314.599 334.007C314.218 334.007 313.863 334.102 313.533 334.293C313.204 334.475 312.935 334.748 312.727 335.112C312.528 335.467 312.428 335.892 312.428 336.386C312.428 336.88 312.528 337.313 312.727 337.686C312.935 338.059 313.204 338.345 313.533 338.544C313.871 338.735 314.227 338.83 314.599 338.83C314.981 338.83 315.336 338.735 315.665 338.544C315.995 338.353 316.259 338.076 316.458 337.712C316.666 337.339 316.77 336.906 316.77 336.412ZM319.718 336.386C319.718 335.667 319.865 335.03 320.16 334.475C320.463 333.92 320.87 333.491 321.382 333.188C321.902 332.876 322.474 332.72 323.098 332.72C323.661 332.72 324.151 332.833 324.567 333.058C324.991 333.275 325.329 333.548 325.581 333.877V332.837H327.076V340H325.581V338.934C325.329 339.272 324.987 339.554 324.554 339.779C324.12 340.004 323.626 340.117 323.072 340.117C322.456 340.117 321.893 339.961 321.382 339.649C320.87 339.328 320.463 338.886 320.16 338.323C319.865 337.751 319.718 337.105 319.718 336.386ZM325.581 336.412C325.581 335.918 325.477 335.489 325.269 335.125C325.069 334.761 324.805 334.484 324.476 334.293C324.146 334.102 323.791 334.007 323.41 334.007C323.028 334.007 322.673 334.102 322.344 334.293C322.014 334.475 321.746 334.748 321.538 335.112C321.338 335.467 321.239 335.892 321.239 336.386C321.239 336.88 321.338 337.313 321.538 337.686C321.746 338.059 322.014 338.345 322.344 338.544C322.682 338.735 323.037 338.83 323.41 338.83C323.791 338.83 324.146 338.735 324.476 338.544C324.805 338.353 325.069 338.076 325.269 337.712C325.477 337.339 325.581 336.906 325.581 336.412ZM331.622 340.117C331.059 340.117 330.552 340.017 330.101 339.818C329.659 339.61 329.308 339.333 329.048 338.986C328.788 338.631 328.65 338.236 328.632 337.803H330.166C330.192 338.106 330.335 338.362 330.595 338.57C330.864 338.769 331.198 338.869 331.596 338.869C332.012 338.869 332.333 338.791 332.558 338.635C332.792 338.47 332.909 338.262 332.909 338.011C332.909 337.742 332.779 337.543 332.519 337.413C332.268 337.283 331.865 337.14 331.31 336.984C330.773 336.837 330.335 336.694 329.997 336.555C329.659 336.416 329.365 336.204 329.113 335.918C328.871 335.632 328.749 335.255 328.749 334.787C328.749 334.406 328.862 334.059 329.087 333.747C329.313 333.426 329.633 333.175 330.049 332.993C330.474 332.811 330.959 332.72 331.505 332.72C332.32 332.72 332.974 332.928 333.468 333.344C333.971 333.751 334.24 334.31 334.274 335.021H332.792C332.766 334.7 332.636 334.445 332.402 334.254C332.168 334.063 331.852 333.968 331.453 333.968C331.063 333.968 330.764 334.042 330.556 334.189C330.348 334.336 330.244 334.531 330.244 334.774C330.244 334.965 330.314 335.125 330.452 335.255C330.591 335.385 330.76 335.489 330.959 335.567C331.159 335.636 331.453 335.727 331.843 335.84C332.363 335.979 332.788 336.122 333.117 336.269C333.455 336.408 333.746 336.616 333.988 336.893C334.231 337.17 334.357 337.539 334.365 337.998C334.365 338.405 334.253 338.769 334.027 339.09C333.802 339.411 333.481 339.662 333.065 339.844C332.658 340.026 332.177 340.117 331.622 340.117Z" fill="white"/>
<circle cx="46" cy="285" r="9" fill="#FFCD54"/>
<path d="M42 284.945L44.8444 288L50 282" stroke="#3F3F3F" stroke-linecap="round" stroke-linejoin="round"/>
<path d="M68.9157 288.154H65.1327L64.4827 290H62.9357L66.1727 280.952H67.8887L71.1257 290H69.5657L68.9157 288.154ZM68.4997 286.945L67.0307 282.746L65.5487 286.945H68.4997ZM68.3697 279.028L65.4967 280.445V279.353L68.3697 277.767V279.028ZM77.2261 290L75.1461 286.386H74.0151V290H72.5331V280.965H75.6531C76.3464 280.965 76.9314 281.086 77.4081 281.329C77.8934 281.572 78.2531 281.897 78.4871 282.304C78.7298 282.711 78.8511 283.166 78.8511 283.669C78.8511 284.258 78.6778 284.796 78.3311 285.281C77.9931 285.758 77.4688 286.083 76.7581 286.256L78.9941 290H77.2261ZM74.0151 285.203H75.6531C76.2078 285.203 76.6238 285.064 76.9011 284.787C77.1871 284.51 77.3301 284.137 77.3301 283.669C77.3301 283.201 77.1914 282.837 76.9141 282.577C76.6368 282.308 76.2164 282.174 75.6531 282.174H74.0151V285.203ZM82.229 282.161V284.813H85.349V286.022H82.229V288.791H85.739V290H80.747V280.952H85.739V282.161H82.229ZM93.0114 288.154H89.2284L88.5784 290H87.0314L90.2684 280.952H91.9844L95.2214 290H93.6614L93.0114 288.154ZM92.5954 286.945L91.1264 282.746L89.6444 286.945H92.5954ZM102.957 280.965C103.919 280.965 104.759 281.151 105.479 281.524C106.207 281.888 106.766 282.417 107.156 283.11C107.554 283.795 107.754 284.596 107.754 285.515C107.754 286.434 107.554 287.231 107.156 287.907C106.766 288.583 106.207 289.103 105.479 289.467C104.759 289.822 103.919 290 102.957 290H100.006V280.965H102.957ZM102.957 288.791C104.014 288.791 104.824 288.505 105.388 287.933C105.951 287.361 106.233 286.555 106.233 285.515C106.233 284.466 105.951 283.647 105.388 283.058C104.824 282.469 104.014 282.174 102.957 282.174H101.488V288.791H102.957ZM110.705 282.161V284.813H113.825V286.022H110.705V288.791H114.215V290H109.223V280.952H114.215V282.161H110.705ZM128.933 280.965V290H127.451V283.812L124.695 290H123.668L120.899 283.812V290H119.417V280.965H121.016L124.188 288.05L127.347 280.965H128.933ZM132.363 282.161V284.813H135.483V286.022H132.363V288.791H135.873V290H130.881V280.952H135.873V282.161H132.363ZM147.214 280.965V290H145.732V283.812L142.976 290H141.949L139.18 283.812V290H137.698V280.965H139.297L142.469 288.05L145.628 280.965H147.214ZM153.998 285.359C154.483 285.446 154.895 285.701 155.233 286.126C155.571 286.551 155.74 287.032 155.74 287.569C155.74 288.028 155.619 288.444 155.376 288.817C155.142 289.181 154.8 289.471 154.349 289.688C153.898 289.896 153.374 290 152.776 290H149.162V280.965H152.607C153.222 280.965 153.751 281.069 154.193 281.277C154.635 281.485 154.969 281.767 155.194 282.122C155.419 282.469 155.532 282.859 155.532 283.292C155.532 283.812 155.393 284.245 155.116 284.592C154.839 284.939 154.466 285.194 153.998 285.359ZM150.644 284.761H152.477C152.962 284.761 153.339 284.653 153.608 284.436C153.885 284.211 154.024 283.89 154.024 283.474C154.024 283.067 153.885 282.75 153.608 282.525C153.339 282.291 152.962 282.174 152.477 282.174H150.644V284.761ZM152.646 288.791C153.149 288.791 153.543 288.67 153.829 288.427C154.115 288.184 154.258 287.846 154.258 287.413C154.258 286.971 154.106 286.62 153.803 286.36C153.5 286.1 153.097 285.97 152.594 285.97H150.644V288.791H152.646ZM162.043 290L159.963 286.386H158.832V290H157.35V280.965H160.47C161.164 280.965 161.749 281.086 162.225 281.329C162.711 281.572 163.07 281.897 163.304 282.304C163.547 282.711 163.668 283.166 163.668 283.669C163.668 284.258 163.495 284.796 163.148 285.281C162.81 285.758 162.286 286.083 161.575 286.256L163.811 290H162.043ZM158.832 285.203H160.47C161.025 285.203 161.441 285.064 161.718 284.787C162.004 284.51 162.147 284.137 162.147 283.669C162.147 283.201 162.009 282.837 161.731 282.577C161.454 282.308 161.034 282.174 160.47 282.174H158.832V285.203ZM169.685 290.091C168.845 290.091 168.069 289.896 167.358 289.506C166.656 289.107 166.097 288.557 165.681 287.855C165.274 287.144 165.07 286.347 165.07 285.463C165.07 284.579 165.274 283.786 165.681 283.084C166.097 282.382 166.656 281.836 167.358 281.446C168.069 281.047 168.845 280.848 169.685 280.848C170.535 280.848 171.31 281.047 172.012 281.446C172.723 281.836 173.282 282.382 173.689 283.084C174.097 283.786 174.3 284.579 174.3 285.463C174.3 286.347 174.097 287.144 173.689 287.855C173.282 288.557 172.723 289.107 172.012 289.506C171.31 289.896 170.535 290.091 169.685 290.091ZM169.685 288.804C170.283 288.804 170.816 288.67 171.284 288.401C171.752 288.124 172.116 287.734 172.376 287.231C172.645 286.72 172.779 286.13 172.779 285.463C172.779 284.796 172.645 284.211 172.376 283.708C172.116 283.205 171.752 282.82 171.284 282.551C170.816 282.282 170.283 282.148 169.685 282.148C169.087 282.148 168.554 282.282 168.086 282.551C167.618 282.82 167.25 283.205 166.981 283.708C166.721 284.211 166.591 284.796 166.591 285.463C166.591 286.13 166.721 286.72 166.981 287.231C167.25 287.734 167.618 288.124 168.086 288.401C168.554 288.67 169.087 288.804 169.685 288.804ZM178.736 290.091C178.129 290.091 177.583 289.987 177.098 289.779C176.612 289.562 176.231 289.259 175.954 288.869C175.676 288.479 175.538 288.024 175.538 287.504H177.124C177.158 287.894 177.31 288.215 177.579 288.466C177.856 288.717 178.242 288.843 178.736 288.843C179.247 288.843 179.646 288.722 179.932 288.479C180.218 288.228 180.361 287.907 180.361 287.517C180.361 287.214 180.27 286.967 180.088 286.776C179.914 286.585 179.693 286.438 179.425 286.334C179.165 286.23 178.801 286.117 178.333 285.996C177.743 285.84 177.262 285.684 176.89 285.528C176.526 285.363 176.214 285.112 175.954 284.774C175.694 284.436 175.564 283.985 175.564 283.422C175.564 282.902 175.694 282.447 175.954 282.057C176.214 281.667 176.578 281.368 177.046 281.16C177.514 280.952 178.055 280.848 178.671 280.848C179.546 280.848 180.261 281.069 180.816 281.511C181.379 281.944 181.691 282.542 181.752 283.305H180.114C180.088 282.976 179.932 282.694 179.646 282.46C179.36 282.226 178.983 282.109 178.515 282.109C178.09 282.109 177.743 282.217 177.475 282.434C177.206 282.651 177.072 282.963 177.072 283.37C177.072 283.647 177.154 283.877 177.319 284.059C177.492 284.232 177.709 284.371 177.969 284.475C178.229 284.579 178.584 284.692 179.035 284.813C179.633 284.978 180.118 285.142 180.491 285.307C180.872 285.472 181.193 285.727 181.453 286.074C181.721 286.412 181.856 286.867 181.856 287.439C181.856 287.898 181.73 288.332 181.479 288.739C181.236 289.146 180.876 289.476 180.4 289.727C179.932 289.97 179.377 290.091 178.736 290.091ZM186.487 286.412C186.487 285.675 186.635 285.03 186.929 284.475C187.233 283.912 187.649 283.478 188.177 283.175C188.706 282.872 189.313 282.72 189.997 282.72C190.864 282.72 191.579 282.928 192.142 283.344C192.714 283.751 193.1 284.336 193.299 285.099H191.7C191.57 284.744 191.362 284.466 191.076 284.267C190.79 284.068 190.431 283.968 189.997 283.968C189.391 283.968 188.905 284.185 188.541 284.618C188.186 285.043 188.008 285.641 188.008 286.412C188.008 287.183 188.186 287.786 188.541 288.219C188.905 288.652 189.391 288.869 189.997 288.869C190.855 288.869 191.423 288.492 191.7 287.738H193.299C193.091 288.466 192.701 289.047 192.129 289.48C191.557 289.905 190.847 290.117 189.997 290.117C189.313 290.117 188.706 289.965 188.177 289.662C187.649 289.35 187.233 288.917 186.929 288.362C186.635 287.799 186.487 287.149 186.487 286.412ZM197.883 290.117C197.207 290.117 196.596 289.965 196.05 289.662C195.504 289.35 195.075 288.917 194.763 288.362C194.451 287.799 194.295 287.149 194.295 286.412C194.295 285.684 194.456 285.038 194.776 284.475C195.097 283.912 195.535 283.478 196.089 283.175C196.644 282.872 197.264 282.72 197.948 282.72C198.633 282.72 199.253 282.872 199.807 283.175C200.362 283.478 200.8 283.912 201.12 284.475C201.441 285.038 201.601 285.684 201.601 286.412C201.601 287.14 201.437 287.786 201.107 288.349C200.778 288.912 200.327 289.35 199.755 289.662C199.192 289.965 198.568 290.117 197.883 290.117ZM197.883 288.83C198.265 288.83 198.62 288.739 198.949 288.557C199.287 288.375 199.56 288.102 199.768 287.738C199.976 287.374 200.08 286.932 200.08 286.412C200.08 285.892 199.981 285.454 199.781 285.099C199.582 284.735 199.318 284.462 198.988 284.28C198.659 284.098 198.304 284.007 197.922 284.007C197.541 284.007 197.186 284.098 196.856 284.28C196.536 284.462 196.28 284.735 196.089 285.099C195.899 285.454 195.803 285.892 195.803 286.412C195.803 287.183 195.998 287.781 196.388 288.206C196.787 288.622 197.285 288.83 197.883 288.83ZM211.737 282.72C212.301 282.72 212.803 282.837 213.245 283.071C213.696 283.305 214.047 283.652 214.298 284.111C214.558 284.57 214.688 285.125 214.688 285.775V290H213.219V285.996C213.219 285.355 213.059 284.865 212.738 284.527C212.418 284.18 211.98 284.007 211.425 284.007C210.871 284.007 210.429 284.18 210.099 284.527C209.779 284.865 209.618 285.355 209.618 285.996V290H208.149V285.996C208.149 285.355 207.989 284.865 207.668 284.527C207.348 284.18 206.91 284.007 206.355 284.007C205.801 284.007 205.359 284.18 205.029 284.527C204.709 284.865 204.548 285.355 204.548 285.996V290H203.066V282.837H204.548V283.656C204.791 283.361 205.099 283.132 205.471 282.967C205.844 282.802 206.243 282.72 206.667 282.72C207.239 282.72 207.751 282.841 208.201 283.084C208.652 283.327 208.999 283.678 209.241 284.137C209.458 283.704 209.796 283.361 210.255 283.11C210.715 282.85 211.209 282.72 211.737 282.72ZM226.516 286.243C226.516 286.512 226.499 286.754 226.464 286.971H220.991C221.034 287.543 221.247 288.002 221.628 288.349C222.009 288.696 222.477 288.869 223.032 288.869C223.829 288.869 224.393 288.535 224.722 287.868H226.321C226.104 288.527 225.71 289.068 225.138 289.493C224.575 289.909 223.873 290.117 223.032 290.117C222.347 290.117 221.732 289.965 221.186 289.662C220.649 289.35 220.224 288.917 219.912 288.362C219.609 287.799 219.457 287.149 219.457 286.412C219.457 285.675 219.604 285.03 219.899 284.475C220.202 283.912 220.623 283.478 221.16 283.175C221.706 282.872 222.33 282.72 223.032 282.72C223.708 282.72 224.31 282.867 224.839 283.162C225.368 283.457 225.779 283.873 226.074 284.41C226.369 284.939 226.516 285.55 226.516 286.243ZM224.969 285.775C224.96 285.229 224.765 284.791 224.384 284.462C224.003 284.133 223.53 283.968 222.967 283.968C222.456 283.968 222.018 284.133 221.654 284.462C221.29 284.783 221.073 285.22 221.004 285.775H224.969ZM231.043 286.373L233.357 290H231.68L230.133 287.569L228.677 290H227.13L229.444 286.477L227.13 282.837H228.807L230.354 285.268L231.81 282.837H233.357L231.043 286.373ZM241.027 286.243C241.027 286.512 241.009 286.754 240.975 286.971H235.502C235.545 287.543 235.757 288.002 236.139 288.349C236.52 288.696 236.988 288.869 237.543 288.869C238.34 288.869 238.903 288.535 239.233 287.868H240.832C240.615 288.527 240.221 289.068 239.649 289.493C239.085 289.909 238.383 290.117 237.543 290.117C236.858 290.117 236.243 289.965 235.697 289.662C235.159 289.35 234.735 288.917 234.423 288.362C234.119 287.799 233.968 287.149 233.968 286.412C233.968 285.675 234.115 285.03 234.41 284.475C234.713 283.912 235.133 283.478 235.671 283.175C236.217 282.872 236.841 282.72 237.543 282.72C238.219 282.72 238.821 282.867 239.35 283.162C239.878 283.457 240.29 283.873 240.585 284.41C240.879 284.939 241.027 285.55 241.027 286.243ZM239.48 285.775C239.471 285.229 239.276 284.791 238.895 284.462C238.513 284.133 238.041 283.968 237.478 283.968C236.966 283.968 236.529 284.133 236.165 284.462C235.801 284.783 235.584 285.22 235.515 285.775H239.48ZM243.967 283.877C244.184 283.513 244.47 283.231 244.825 283.032C245.189 282.824 245.618 282.72 246.112 282.72V284.254H245.735C245.155 284.254 244.713 284.401 244.409 284.696C244.115 284.991 243.967 285.502 243.967 286.23V290H242.485V282.837H243.967V283.877ZM246.981 286.412C246.981 285.675 247.128 285.03 247.423 284.475C247.726 283.912 248.142 283.478 248.671 283.175C249.199 282.872 249.806 282.72 250.491 282.72C251.357 282.72 252.072 282.928 252.636 283.344C253.208 283.751 253.593 284.336 253.793 285.099H252.194C252.064 284.744 251.856 284.466 251.57 284.267C251.284 284.068 250.924 283.968 250.491 283.968C249.884 283.968 249.399 284.185 249.035 284.618C248.679 285.043 248.502 285.641 248.502 286.412C248.502 287.183 248.679 287.786 249.035 288.219C249.399 288.652 249.884 288.869 250.491 288.869C251.349 288.869 251.916 288.492 252.194 287.738H253.793C253.585 288.466 253.195 289.047 252.623 289.48C252.051 289.905 251.34 290.117 250.491 290.117C249.806 290.117 249.199 289.965 248.671 289.662C248.142 289.35 247.726 288.917 247.423 288.362C247.128 287.799 246.981 287.149 246.981 286.412ZM256.751 282.837V290H255.269V282.837H256.751ZM257.349 280.913L254.476 282.33V281.238L257.349 279.652V280.913ZM258.203 286.412C258.203 285.675 258.351 285.03 258.645 284.475C258.949 283.912 259.365 283.478 259.893 283.175C260.422 282.872 261.029 282.72 261.713 282.72C262.58 282.72 263.295 282.928 263.858 283.344C264.43 283.751 264.816 284.336 265.015 285.099H263.416C263.286 284.744 263.078 284.466 262.792 284.267C262.506 284.068 262.147 283.968 261.713 283.968C261.107 283.968 260.621 284.185 260.257 284.618C259.902 285.043 259.724 285.641 259.724 286.412C259.724 287.183 259.902 287.786 260.257 288.219C260.621 288.652 261.107 288.869 261.713 288.869C262.571 288.869 263.139 288.492 263.416 287.738H265.015C264.807 288.466 264.417 289.047 263.845 289.48C263.273 289.905 262.563 290.117 261.713 290.117C261.029 290.117 260.422 289.965 259.893 289.662C259.365 289.35 258.949 288.917 258.645 288.362C258.351 287.799 258.203 287.149 258.203 286.412ZM267.246 281.888C266.977 281.888 266.752 281.797 266.57 281.615C266.388 281.433 266.297 281.208 266.297 280.939C266.297 280.67 266.388 280.445 266.57 280.263C266.752 280.081 266.977 279.99 267.246 279.99C267.506 279.99 267.727 280.081 267.909 280.263C268.091 280.445 268.182 280.67 268.182 280.939C268.182 281.208 268.091 281.433 267.909 281.615C267.727 281.797 267.506 281.888 267.246 281.888ZM267.974 282.837V290H266.492V282.837H267.974ZM273.027 290.117C272.351 290.117 271.74 289.965 271.194 289.662C270.648 289.35 270.219 288.917 269.907 288.362C269.595 287.799 269.439 287.149 269.439 286.412C269.439 285.684 269.599 285.038 269.92 284.475C270.24 283.912 270.678 283.478 271.233 283.175C271.787 282.872 272.407 282.72 273.092 282.72C273.776 282.72 274.396 282.872 274.951 283.175C275.505 283.478 275.943 283.912 276.264 284.475C276.584 285.038 276.745 285.684 276.745 286.412C276.745 287.14 276.58 287.786 276.251 288.349C275.921 288.912 275.471 289.35 274.899 289.662C274.335 289.965 273.711 290.117 273.027 290.117ZM273.027 288.83C273.408 288.83 273.763 288.739 274.093 288.557C274.431 288.375 274.704 288.102 274.912 287.738C275.12 287.374 275.224 286.932 275.224 286.412C275.224 285.892 275.124 285.454 274.925 285.099C274.725 284.735 274.461 284.462 274.132 284.28C273.802 284.098 273.447 284.007 273.066 284.007C272.684 284.007 272.329 284.098 272 284.28C271.679 284.462 271.423 284.735 271.233 285.099C271.042 285.454 270.947 285.892 270.947 286.412C270.947 287.183 271.142 287.781 271.532 288.206C271.93 288.622 272.429 288.83 273.027 288.83ZM280.81 290.117C280.247 290.117 279.74 290.017 279.289 289.818C278.847 289.61 278.496 289.333 278.236 288.986C277.976 288.631 277.837 288.236 277.82 287.803H279.354C279.38 288.106 279.523 288.362 279.783 288.57C280.052 288.769 280.385 288.869 280.784 288.869C281.2 288.869 281.521 288.791 281.746 288.635C281.98 288.47 282.097 288.262 282.097 288.011C282.097 287.742 281.967 287.543 281.707 287.413C281.456 287.283 281.053 287.14 280.498 286.984C279.961 286.837 279.523 286.694 279.185 286.555C278.847 286.416 278.552 286.204 278.301 285.918C278.058 285.632 277.937 285.255 277.937 284.787C277.937 284.406 278.05 284.059 278.275 283.747C278.5 283.426 278.821 283.175 279.237 282.993C279.662 282.811 280.147 282.72 280.693 282.72C281.508 282.72 282.162 282.928 282.656 283.344C283.159 283.751 283.427 284.31 283.462 285.021H281.98C281.954 284.7 281.824 284.445 281.59 284.254C281.356 284.063 281.04 283.968 280.641 283.968C280.251 283.968 279.952 284.042 279.744 284.189C279.536 284.336 279.432 284.531 279.432 284.774C279.432 284.965 279.501 285.125 279.64 285.255C279.779 285.385 279.948 285.489 280.147 285.567C280.346 285.636 280.641 285.727 281.031 285.84C281.551 285.979 281.976 286.122 282.305 286.269C282.643 286.408 282.933 286.616 283.176 286.893C283.419 287.17 283.544 287.539 283.553 287.998C283.553 288.405 283.44 288.769 283.215 289.09C282.99 289.411 282.669 289.662 282.253 289.844C281.846 290.026 281.365 290.117 280.81 290.117ZM295.096 286.243C295.096 286.512 295.079 286.754 295.044 286.971H289.571C289.614 287.543 289.827 288.002 290.208 288.349C290.589 288.696 291.057 288.869 291.612 288.869C292.409 288.869 292.973 288.535 293.302 287.868H294.901C294.684 288.527 294.29 289.068 293.718 289.493C293.155 289.909 292.453 290.117 291.612 290.117C290.927 290.117 290.312 289.965 289.766 289.662C289.229 289.35 288.804 288.917 288.492 288.362C288.189 287.799 288.037 287.149 288.037 286.412C288.037 285.675 288.184 285.03 288.479 284.475C288.782 283.912 289.203 283.478 289.74 283.175C290.286 282.872 290.91 282.72 291.612 282.72C292.288 282.72 292.89 282.867 293.419 283.162C293.948 283.457 294.359 283.873 294.654 284.41C294.949 284.939 295.096 285.55 295.096 286.243ZM293.549 285.775C293.54 285.229 293.345 284.791 292.964 284.462C292.583 284.133 292.11 283.968 291.547 283.968C291.036 283.968 290.598 284.133 290.234 284.462C289.87 284.783 289.653 285.22 289.584 285.775H293.549ZM305.226 282.72C305.789 282.72 306.292 282.837 306.734 283.071C307.184 283.305 307.535 283.652 307.787 284.111C308.047 284.57 308.177 285.125 308.177 285.775V290H306.708V285.996C306.708 285.355 306.547 284.865 306.227 284.527C305.906 284.18 305.468 284.007 304.914 284.007C304.359 284.007 303.917 284.18 303.588 284.527C303.267 284.865 303.107 285.355 303.107 285.996V290H301.638V285.996C301.638 285.355 301.477 284.865 301.157 284.527C300.836 284.18 300.398 284.007 299.844 284.007C299.289 284.007 298.847 284.18 298.518 284.527C298.197 284.865 298.037 285.355 298.037 285.996V290H296.555V282.837H298.037V283.656C298.279 283.361 298.587 283.132 298.96 282.967C299.332 282.802 299.731 282.72 300.156 282.72C300.728 282.72 301.239 282.841 301.69 283.084C302.14 283.327 302.487 283.678 302.73 284.137C302.946 283.704 303.284 283.361 303.744 283.11C304.203 282.85 304.697 282.72 305.226 282.72ZM316.208 288.674L318.236 282.837H319.809L317.079 290H315.311L312.594 282.837H314.18L316.208 288.674ZM322.412 282.837V290H320.93V282.837H322.412ZM323.01 280.913L320.137 282.33V281.238L323.01 279.652V280.913ZM323.863 286.386C323.863 285.667 324.011 285.03 324.305 284.475C324.609 283.92 325.016 283.491 325.527 283.188C326.047 282.876 326.624 282.72 327.256 282.72C327.724 282.72 328.184 282.824 328.634 283.032C329.094 283.231 329.458 283.5 329.726 283.838V280.38H331.221V290H329.726V288.921C329.484 289.268 329.146 289.554 328.712 289.779C328.288 290.004 327.798 290.117 327.243 290.117C326.619 290.117 326.047 289.961 325.527 289.649C325.016 289.328 324.609 288.886 324.305 288.323C324.011 287.751 323.863 287.105 323.863 286.386ZM329.726 286.412C329.726 285.918 329.622 285.489 329.414 285.125C329.215 284.761 328.951 284.484 328.621 284.293C328.292 284.102 327.937 284.007 327.555 284.007C327.174 284.007 326.819 284.102 326.489 284.293C326.16 284.475 325.891 284.748 325.683 285.112C325.484 285.467 325.384 285.892 325.384 286.386C325.384 286.88 325.484 287.313 325.683 287.686C325.891 288.059 326.16 288.345 326.489 288.544C326.827 288.735 327.183 288.83 327.555 288.83C327.937 288.83 328.292 288.735 328.621 288.544C328.951 288.353 329.215 288.076 329.414 287.712C329.622 287.339 329.726 286.906 329.726 286.412ZM339.733 286.243C339.733 286.512 339.716 286.754 339.681 286.971H334.208C334.251 287.543 334.464 288.002 334.845 288.349C335.226 288.696 335.694 288.869 336.249 288.869C337.046 288.869 337.61 288.535 337.939 287.868H339.538C339.321 288.527 338.927 289.068 338.355 289.493C337.792 289.909 337.09 290.117 336.249 290.117C335.564 290.117 334.949 289.965 334.403 289.662C333.866 289.35 333.441 288.917 333.129 288.362C332.826 287.799 332.674 287.149 332.674 286.412C332.674 285.675 332.821 285.03 333.116 284.475C333.419 283.912 333.84 283.478 334.377 283.175C334.923 282.872 335.547 282.72 336.249 282.72C336.925 282.72 337.527 282.867 338.056 283.162C338.585 283.457 338.996 283.873 339.291 284.41C339.586 284.939 339.733 285.55 339.733 286.243ZM338.186 285.775C338.177 285.229 337.982 284.791 337.601 284.462C337.22 284.133 336.747 283.968 336.184 283.968C335.673 283.968 335.235 284.133 334.871 284.462C334.507 284.783 334.29 285.22 334.221 285.775H338.186ZM344.298 290.117C343.622 290.117 343.011 289.965 342.465 289.662C341.919 289.35 341.49 288.917 341.178 288.362C340.866 287.799 340.71 287.149 340.71 286.412C340.71 285.684 340.871 285.038 341.191 284.475C341.512 283.912 341.95 283.478 342.504 283.175C343.059 282.872 343.679 282.72 344.363 282.72C345.048 282.72 345.668 282.872 346.222 283.175C346.777 283.478 347.215 283.912 347.535 284.475C347.856 285.038 348.016 285.684 348.016 286.412C348.016 287.14 347.852 287.786 347.522 288.349C347.193 288.912 346.742 289.35 346.17 289.662C345.607 289.965 344.983 290.117 344.298 290.117ZM344.298 288.83C344.68 288.83 345.035 288.739 345.364 288.557C345.702 288.375 345.975 288.102 346.183 287.738C346.391 287.374 346.495 286.932 346.495 286.412C346.495 285.892 346.396 285.454 346.196 285.099C345.997 284.735 345.733 284.462 345.403 284.28C345.074 284.098 344.719 284.007 344.337 284.007C343.956 284.007 343.601 284.098 343.271 284.28C342.951 284.462 342.695 284.735 342.504 285.099C342.314 285.454 342.218 285.892 342.218 286.412C342.218 287.183 342.413 287.781 342.803 288.206C343.202 288.622 343.7 288.83 344.298 288.83Z" fill="white"/>
</svg>
